<svg width="112" height="112" viewBox="0 0 112 112" fill="none" xmlns="http://www.w3.org/2000/svg">
<path d="M72.5554 85.2893C66.0717 85.791 63.1811 77.6433 63.1811 77.6433C61.1738 77.1717 58.1126 80.1518 58.1126 80.1518C57.3498 80.804 57.1089 81.1151 55.4528 80.8141C53.7968 80.513 50.1735 71.9841 50.1735 71.9841C46.9116 65.2111 50.8861 63.9368 50.8861 63.9368C53.7867 62.813 53.2548 66.2346 53.2548 66.2346C52.9336 68.713 53.9072 71.9841 53.9072 71.9841C55.2922 75.2753 56.8279 72.1948 56.8279 72.1948C58.8252 67.0474 60.9429 66.4554 60.9429 66.4554C61.0031 67.4086 62.2477 66.8266 62.2477 66.8266C64.7569 64.4285 65.7405 64.9201 65.7405 64.9201C65.2989 66.1744 67.1557 66.0038 67.1557 66.0038C73.3182 65.2814 76.1185 69.0742 76.1185 69.0742C76.1185 69.0742 81.3777 73.8304 80.364 76.9309" fill="#EE8A46"/>
<path d="M72.5556 85.2894C67.9889 85.6506 64.6366 81.4865 63.1813 77.6635C61.1539 77.4327 59.4476 79.0482 58.0124 80.2824C57.2395 81.1754 55.4831 81.1955 54.7404 80.3627C52.6929 77.8943 51.4684 74.864 50.1335 71.9742C49.451 70.5394 48.8689 68.9941 48.8589 67.3686C48.6882 65.412 50.535 63.0138 52.6226 63.8466C53.7267 64.6293 53.2349 66.1545 53.2449 67.2582C53.3453 69.1547 53.4457 71.2518 54.4594 72.8873C55.2723 74.0713 56.3362 73.1081 56.7879 72.1849C57.4503 70.5093 58.2533 68.8436 59.4878 67.5091C59.9093 67.0676 60.381 66.6361 60.9732 66.4154C60.9933 66.5558 61.0134 66.7164 61.1037 66.8167C61.4048 67.0977 61.8866 66.9371 62.2278 66.7967C62.9404 66.1344 63.7835 65.4019 64.727 65.0206C65.0582 64.9002 65.4095 64.7898 65.7708 64.9103V64.9404C65.3593 66.2347 67.1759 65.9939 67.9588 65.9237C70.9497 65.723 74.1615 66.7365 76.1287 69.0643C78.1059 71.1314 80.9564 73.8205 80.3642 76.931C80.9463 73.8205 78.0859 71.1314 76.1086 69.0744C74.1414 66.7465 70.9397 65.7531 67.9588 65.9538C67.1558 66.0441 65.289 66.2448 65.7106 64.9002L65.7206 64.9303C65.4095 64.84 65.0481 64.9303 64.747 65.0608C63.7935 65.4621 63.0107 66.1444 62.2579 66.8468C61.997 66.9572 61.726 67.0375 61.4449 67.0274C61.1338 67.0274 60.913 66.7565 60.913 66.4555L60.9531 66.4856C60.4011 66.6963 59.9495 67.1177 59.538 67.5492C58.3135 68.8837 57.5306 70.5394 56.8682 72.205C56.3764 73.2184 55.2523 74.1717 54.3791 72.9375C53.3453 71.2718 53.2449 69.1647 53.1345 67.2482C53.1144 66.1344 53.6163 64.6895 52.5624 63.9269C50.545 63.1443 48.7786 65.4722 48.9392 67.3586C48.9392 68.954 49.5213 70.4892 50.1938 71.924C51.5186 74.8038 52.733 77.8441 54.7605 80.3025C55.463 81.0952 57.1894 81.1253 57.9622 80.2222C59.4075 78.988 61.1238 77.3725 63.1713 77.6134C64.6868 81.4865 67.9487 85.6205 72.5355 85.2794L72.5556 85.2894Z" fill="#E96C47"/>
<path d="M77.9152 54.0635C77.9152 54.0635 76.0383 54.8662 74.5428 54.6655C74.5428 54.6655 73.0875 54.3244 71.582 52.5283C71.582 52.5283 70.2772 50.2205 66.112 53.2808C66.112 53.2808 65.5399 54.0936 62.7898 54.6756C62.7898 54.6756 57.5607 56.3011 60.5115 60.1341C60.5115 60.1341 62.4285 62.3617 66.6841 57.9366C66.6841 57.9366 68.029 55.4482 69.1029 57.8865C69.1029 57.8865 72.1039 63.7163 75.7974 61.4686" fill="#B96C3F"/>
<path d="M48.1964 51.0735L51.3178 71.0312L60.2706 71.2118L63.4723 51.3745L48.1964 51.0735Z" fill="#865093"/>
<path d="M51.3178 71.0315L60.2706 71.2122L60.5115 69.7468L51.087 69.5662L51.3178 71.0315Z" fill="#EEEDED"/>
<path d="M48.4573 52.7697L63.2013 53.0206L63.4723 51.3746L48.1863 51.1738L48.4573 52.7697Z" fill="#EEEDED"/>
<path d="M63.4575 51.4656C63.4667 50.9889 60.0552 50.5363 55.8377 50.4546C51.6202 50.3729 48.1937 50.6931 48.1845 51.1697C48.1752 51.6463 51.5867 52.0989 55.8043 52.1806C60.0218 52.2623 63.4483 51.9422 63.4575 51.4656Z" fill="#22131C"/>
<path d="M48.4573 52.769C48.4573 52.769 54.2385 53.6924 63.2013 53.02L48.4573 52.769Z" fill="#EEEDED"/>
<path d="M52.5323 31.7478C54.7604 33.6744 54.7002 37.1461 53.6664 39.6948C52.8936 41.6514 51.0468 44.3305 52.6126 46.2972C52.8033 46.548 53.1646 46.829 53.0642 47.2103C53.0943 46.839 52.733 46.6584 52.4921 46.4176C50.4647 44.5212 52.2713 41.4708 53.0542 39.4439C54.088 36.9856 54.2586 33.9352 52.5423 31.7378L52.5323 31.7478Z" fill="white"/>
<path d="M56.1153 49.6786C55.0615 48.2036 54.3589 46.4477 54.4492 44.5914C54.4693 44.0897 54.7604 43.5779 54.9812 43.2468C55.6737 42.1431 55.6737 40.8186 55.7741 39.5242C55.9547 40.3971 56.0651 41.2902 55.9447 42.2033C55.9246 43.0662 55.1618 43.8388 55.1016 44.6315C55.0615 46.3273 55.6034 48.033 56.1153 49.6586V49.6786Z" fill="#070702"/>
<path d="M67.0856 44.9727C67.1688 44.9727 67.2362 44.9053 67.2362 44.8222C67.2362 44.739 67.1688 44.6716 67.0856 44.6716C67.0025 44.6716 66.9351 44.739 66.9351 44.8222C66.9351 44.9053 67.0025 44.9727 67.0856 44.9727Z" fill="#E96C47"/>
<path d="M63.6931 43.0863C63.7763 43.0863 63.8437 43.0189 63.8437 42.9357C63.8437 42.8526 63.7763 42.7852 63.6931 42.7852C63.61 42.7852 63.5426 42.8526 63.5426 42.9357C63.5426 43.0189 63.61 43.0863 63.6931 43.0863Z" fill="#E96C47"/>
<path d="M86.015 26.2693C86.9986 26.49 88.2431 26.3796 88.2632 27.4834C88.2833 28.5871 89.026 28.9182 89.2869 29.4801C89.5479 30.0421 88.7048 31.1257 89.568 31.3465C90.4311 31.5572 90.3508 33.574 90.3508 33.574C89.9092 36.213 92.298 39.3035 92.298 39.3035C93.4622 40.1965 92.8801 42.7753 92.9504 43.2268C93.0206 43.6783 95.2588 46.1668 96.0015 46.1266C96.7442 46.0865 94.6867 48.6452 94.6867 48.6452C94.9477 48.7555 96.3227 51.1336 97.9988 51.8059C99.675 52.4681 92.1675 56.6222 92.1675 56.6222C91.9366 57.6156 96.0417 60.3148 96.0417 60.3148C96.2023 62.743 98.4405 66.9272 98.4405 66.9272C98.029 68.9741 95.3692 67.5292 95.3692 67.5292C95.6001 69.0042 94.1849 71.1816 94.1849 71.1816C93.1109 72.4259 96.3428 72.0947 95.2789 75.0748C94.225 78.055 90.7222 81.7776 90.7222 81.7776C90.7222 81.7776 91.3445 81.1053 90.6018 81.9983C89.849 82.8914 87.2595 82.2592 87.2595 82.2592C86.848 83.0619 86.2458 86.7143 86.2458 86.7143C84.5797 87.3364 85.0916 86.9451 83.9574 88.6409C82.8233 90.3366 77.4336 93.0759 77.4336 93.0759C74.5329 93.9087 76.5503 93.8686 75.5266 94.7416C74.5028 95.6145 71.6022 96.2065 71.6022 96.2065C68.9525 96.4674 69.7454 96.9992 66.9552 97.5611C64.1549 98.123 61.3647 97.511 61.3647 97.511C60.7826 97.8521 60.3109 97.8421 60.3109 97.8421C57.8619 97.6414 56.7478 98.0227 56.7478 98.0227C53.516 99.0662 52.6528 98.3237 52.6528 98.3237C51.5889 97.4207 47.7951 97.0093 47.7951 97.0093C45.6472 97.521 44.8041 96.9491 44.8041 96.9491C45.1253 96.7986 43.8707 96.1363 43.8707 96.1363C30.1806 90.447 30.8731 89.6844 30.8731 89.6844C33.021 89.0121 30.562 87.4569 30.562 87.4569C15.8882 78.2155 15.3864 69.4457 15.3864 69.4457C17.1328 71.1816 16.4403 68.9942 16.4403 68.9942C11.3416 57.8665 12.7467 52.9899 12.7467 52.9899C14.6638 54.4448 14.1619 50.4613 14.1619 50.4613C13.0278 38.27 19.5717 31.1057 19.5717 31.1057C19.913 34.1159 21.549 30.7444 21.549 30.7444C27.3703 21.4228 28.2435 21.9145 28.2435 21.9145C29.0464 25.2458 33.4827 20.59 33.4827 20.59C36.4736 17.0179 38.6315 16.6867 38.6315 16.6867C38.6315 16.6867 41.1206 18.523 43.5796 16.7871C43.5796 16.7871 45.8279 14.8304 51.0168 15.9844C51.0168 15.9844 46.8315 22.7473 50.2641 22.1352C50.2641 22.1352 49.0597 24.3226 49.3508 25.7475C49.3508 25.7475 49.1701 35.0089 48.0861 39.464C48.0861 39.464 46.6408 43.4877 48.9694 42.5846C48.9694 42.5846 48.4474 45.1533 44.1316 51.545C44.1316 51.545 41.763 55.6088 43.8305 55.0168C43.8305 55.0168 39.4244 59.5622 41.8834 70.9809C41.8834 70.9809 43.0778 74.7437 44.3826 72.3456C44.3826 72.3456 45.4364 91.2196 65.6103 85.8715C65.6103 85.8715 67.6377 85.3296 68.1094 84.7978" fill="#EE8A46"/>
<path d="M84.5596 31.5973C85.3024 31.4769 85.5533 29.139 85.5533 29.139C85.5533 29.139 86.0451 25.5668 86.286 25.2257C86.286 25.2257 86.8079 24.0015 83.6563 20.911C83.6563 20.911 80.7959 17.4292 79.5413 17.1483C79.5413 17.1483 80.0531 18.1617 79.6818 18.0714C79.6818 18.0714 76.1388 17.3991 76.6507 15.4023C76.6507 15.4023 74.9043 17.2085 75.0247 19.0347C75.0247 19.0347 74.3623 19.3658 74.1114 18.834C74.1114 18.834 72.9973 20.5498 73.5092 23.9313" fill="#EE8A46"/>
<path d="M78.8688 46.9395C70.4479 49.5383 68.1897 47.2706 68.1897 47.2706C69.5446 46.799 69.0528 46.7489 69.0528 46.7489C65.0683 48.1035 62.7197 45.5749 62.7197 45.5749C59.1968 45.1936 60.09 42.8958 60.09 42.8958C62.0171 41.3506 61.445 38.1296 61.445 38.1296C61.3848 30.2328 64.7672 27.935 64.7672 27.935C64.727 27.8146 64.3958 27.935 64.3958 27.935C64.456 26.6707 68.6915 24.383 68.6915 24.383L67.7481 24.1321C68.5209 23.0786 73.3686 22.6973 73.3686 22.6973" fill="#EE8A46"/>
<path d="M72.5758 48.2136C72.5758 48.2136 72.6962 50.8726 71.8431 49.6987C71.8431 49.6987 71.4617 51.8861 71.5219 52.9397" fill="#EE8A46"/>
<path d="M78.6378 54.8464C78.6378 54.8464 76.6706 55.6892 75.1049 55.4685C75.1049 55.4685 73.5793 55.1173 71.9935 53.2309C71.9935 53.2309 70.6285 50.8127 66.2525 54.0236C66.2525 54.0236 65.6603 54.8765 62.7697 55.4885C62.7697 55.4885 57.2897 57.1943 60.371 61.2079C60.371 61.2079 62.3783 63.5459 66.8447 58.9001C66.8447 58.9001 68.2498 56.2812 69.384 58.8499C69.384 58.8499 72.5355 64.9607 76.3996 62.6027" fill="#EE8A46"/>
<path d="M70.0666 60.0437C70.0666 60.0437 69.5848 61.7395 69.093 61.2779C69.093 61.2779 68.1495 64.2179 68.9926 66.4454C68.9926 66.4454 68.4406 66.8869 68.3804 66.4354C68.3804 66.4354 67.6076 69.6363 70.5584 71.6431" fill="#EE8A46"/>
<path d="M71.5218 52.8292C71.5218 52.8292 73.9005 56.0903 75.3156 56.1204C76.7409 56.1505 78.5374 54.1336 78.5374 54.1336L86.1553 31.6875L73.3183 23.4194L76.5201 46.5479L73.5191 47.9627L72.5856 48.1232L72.5054 49.1768L72.1942 49.8993L72.0637 50.2204L71.6021 52.3074L71.5117 52.8192L71.5218 52.8292Z" fill="#EE8A46"/>
<path d="M74.7335 30.6239C74.7335 30.6239 78.6378 29.831 79.6716 32.9725Z" fill="#B96C3F"/>
<path d="M75.7573 30.5237C75.7573 30.5237 79.1396 27.1422 77.6241 24.0015C77.6241 24.0015 76.1085 20.8508 77.8248 19.7371C77.8248 19.7371 78.969 22.7172 80.6652 23.4998C80.6652 23.4998 82.7729 25.0049 81.4381 27.2626C81.4381 27.2626 78.9188 30.2427 79.4508 32.4101" fill="#B96C3F"/>
<path d="M69.926 60.455L69.9561 58.6689L83.4957 64.7696L78.5476 75.185L70.5583 71.6731L70.468 71.2416L69.926 60.455Z" fill="#EE8A46"/>
<path d="M75.5164 94.7313C74.3522 95.4136 71.5921 96.1963 71.5921 96.1963C68.9424 96.4572 69.7353 96.989 66.9451 97.5509C64.1448 98.1128 61.3546 97.5007 61.3546 97.5007C60.7725 97.8419 60.3007 97.8318 60.3007 97.8318C57.8518 97.6311 56.7377 98.0124 56.7377 98.0124C53.5059 99.056 52.6427 98.3135 52.6427 98.3135C51.5788 97.4104 47.7849 96.999 47.7849 96.999C45.6371 97.5107 44.794 96.9388 44.794 96.9388C45.1151 96.7883 43.8606 96.126 43.8606 96.126C30.1704 90.4367 30.863 89.6742 30.863 89.6742C33.0108 89.0019 30.5518 87.4466 30.5518 87.4466C15.8781 78.2052 15.3763 69.4355 15.3763 69.4355C17.1227 71.1714 16.4301 68.984 16.4301 68.984C11.3315 57.8562 12.7366 52.9797 12.7366 52.9797C14.6536 54.4346 14.1518 50.4511 14.1518 50.4511C13.0176 38.2597 19.5616 31.0954 19.5616 31.0954C19.9029 34.1056 21.5388 30.7342 21.5388 30.7342C27.3602 21.4126 28.2333 21.9042 28.2333 21.9042C29.0363 25.2355 33.4725 20.5797 33.4725 20.5797C36.4635 17.0076 38.6214 16.6765 38.6214 16.6765C38.6214 16.6765 41.1105 18.5127 43.5695 16.7768C43.5695 16.7768 45.8177 14.8202 51.0067 15.9741C51.0067 15.9741 20.3144 25.7172 20.5853 49.3674C20.5853 49.3674 15.848 94.2798 71.7828 91.5104C71.7828 91.5104 77.1725 93.758 75.5064 94.7313H75.5164Z" fill="#EE8A46"/>
<path d="M67.7881 24.1223C67.7881 24.1223 68.2096 23.1989 73.4388 22.687C73.4388 22.687 73.4388 23.8111 73.7098 24.2628C73.7098 24.2628 70.9396 22.948 67.7981 24.1223H67.7881Z" fill="#B96C3F"/>
<path d="M72.0737 86.383C65.59 86.8847 62.6994 78.7371 62.6994 78.7371C60.6921 78.2655 57.6309 81.2456 57.6309 81.2456C56.8681 81.8978 56.6272 82.2088 54.9711 81.9078C53.3151 81.5968 49.6918 73.0779 49.6918 73.0779C46.4299 66.3049 50.4044 65.0306 50.4044 65.0306C53.305 63.9067 52.7731 67.3284 52.7731 67.3284C52.4519 69.8068 53.4255 73.0779 53.4255 73.0779C54.8105 76.369 56.3462 73.2886 56.3462 73.2886C58.3435 68.1411 60.4612 67.5491 60.4612 67.5491C60.5215 68.5023 61.766 67.9204 61.766 67.9204C64.2752 65.5222 65.2588 66.0139 65.2588 66.0139C64.8172 67.2682 66.674 67.0976 66.674 67.0976C72.8365 66.3751 75.6368 70.168 75.6368 70.168C75.6368 70.168 80.896 74.9241 79.8823 78.0247" fill="#B96C3F"/>
<path d="M50.274 22.115C50.274 22.115 48.9391 24.6235 49.3406 26.54C49.3406 26.54 48.9592 37.3567 48.0258 39.6645C48.0258 39.6645 46.7612 43.327 48.9793 42.5844C48.9793 42.5844 47.7247 46.6884 44.3222 51.2739C44.3222 51.2739 41.6525 55.6086 43.8405 55.0166C43.8405 55.0166 40.3577 59.5119 41.3112 67.3986C41.3112 67.3986 42.3851 75.4359 44.4025 72.3554C44.4025 72.3554 46.6909 93.2764 68.1996 84.8478C68.1996 84.8478 45.9582 97.6513 36.8047 78.0648C36.8047 78.0648 38.4507 80.0214 39.5648 78.8374C39.5648 78.8374 29.0463 68.0207 37.4471 45.2836C37.4471 45.2836 37.8485 49.2169 39.073 48.364C39.073 48.364 37.0857 40.7984 50.274 22.1351V22.115Z" fill="#B96C3F"/>
<path d="M86.0149 26.249C86.0149 26.249 86.2357 26.3193 87.1791 26.4397C87.1791 26.4397 88.0925 26.5401 88.233 27.2326L88.2731 27.6943L86.0952 26.791L85.9446 26.6605L85.7941 26.249H86.0048H86.0149Z" fill="#B96C3F"/>
<path d="M82.3916 20.9009C82.4017 22.015 81.1973 21.7841 81.1973 21.7841C81.388 22.7878 83.8871 22.8982 83.8871 22.8982L83.3652 21.3224L82.3916 20.9109V20.9009Z" fill="#B96C3F"/>
<path d="M83.5057 73.8711C83.5057 73.8711 83.2849 73.2288 83.7667 71.9742C83.7667 71.9742 84.2685 72.9277 84.8105 71.7734C84.8105 71.7734 83.9473 73.831 83.5057 73.8812V73.8711Z" fill="#E55C50"/>
<path d="M87.8516 62.8432C87.8516 62.8432 86.4063 59.7226 87.7713 53.4814C87.7713 53.4814 88.9256 58.1473 89.9593 54.3444C90.9931 50.5314 90.3709 62.3816 87.8416 62.8532L87.8516 62.8432Z" fill="#B96C3F"/>
<path d="M85.3123 25.5869C85.3123 25.5869 85.0313 27.072 86.2658 28.2459C87.5003 29.4199 87.9018 33.7647 87.9018 33.7647C87.9018 33.7647 87.8817 35.039 90.1902 41.7116C92.4986 48.3843 91.2741 40.046 91.2741 40.046L88.223 30.7745L86.5167 26.9616L85.8041 26.4398" fill="#B96C3F"/>
<path d="M72.0137 70.0677C71.9936 71.2819 70.3978 72.225 68.4607 72.1949C66.5236 72.1548 64.9779 71.1414 64.998 69.9373C65.008 69.2048 65.6002 68.5626 66.5035 68.1813C67.0856 67.9405 67.7882 67.8 68.551 67.8101C70.4881 67.8502 72.0337 68.8636 72.0137 70.0677Z" fill="#EE8A46"/>
<path d="M70.7992 71.6834C70.7992 71.6834 68.7417 73.6004 67.9287 73.1186C67.9287 73.1186 68.5209 72.4462 67.4369 72.0648C67.4369 72.0648 65.4898 71.8038 65.2891 71.4927C65.2891 71.4927 65.7909 71.3722 65.6403 71.2217" fill="#EE8A46"/>
<path d="M75.3559 74.2017C75.3559 74.2017 79.6717 75.0747 79.9828 70.75C79.9828 70.75 80.5549 73.7703 81.4482 73.2585C82.3414 72.7468 84.9309 70.0477 84.941 68.1613C84.941 66.2749 85.9346 65.8735 85.9346 65.8735C85.9346 65.8735 87.7211 63.4051 87.7813 62.5021C87.8416 61.599 88.2832 64.4386 88.2832 64.4386L87.9319 70.9005L86.5569 76.2989L85.3023 80.7439L78.7985 81.647L76.9718 79.0582L75.3458 74.2017H75.3559Z" fill="#B96C3F"/>
<path d="M70.2572 60.2142C70.2572 60.2142 72.9872 66.9269 83.596 59.8931C83.596 59.8931 73.8202 70.0074 70.2572 60.2142Z" fill="#B96C3F"/>
<path d="M72.7362 54.0234C72.7362 54.0234 74.7837 57.7872 78.5174 54.8966C78.5174 54.8966 75.2052 57.5062 72.7362 54.0234Z" fill="#B96C3F"/>
<path d="M77.6543 63.9771C77.6543 63.9771 75.6871 65.9041 73.8503 65.1513C73.8503 65.1513 75.5064 64.5491 74.2016 64.3685L77.6543 63.9771Z" fill="#B96C3F"/>
<path d="M39.2637 83.9348C39.2637 83.9348 42.9873 83.1923 41.2008 80.4329C39.4142 77.6735 45.6872 82.2892 45.6872 82.2892L39.2637 83.9348Z" fill="#B96C3F"/>
<path d="M62.7197 45.5754C62.7197 45.5754 59.3574 45.3948 60.09 42.8956C60.09 42.8956 64.2754 41.892 62.7197 45.5754Z" fill="#B96C3F"/>
<path d="M61.0536 56.6121C61.0536 56.6121 57.1895 58.8497 57.9522 60.1541C57.9522 60.1541 58.7452 61.4786 59.8191 61.3782C59.8191 61.3782 60.06 61.4485 59.4979 60.3347C59.4979 60.3347 59.0964 59.6423 60.1202 59.4116" fill="#EE8A46"/>
<path d="M61.0536 56.6121C60.1101 57.3445 56.9887 59.1507 58.3336 60.4952C58.7251 60.9568 59.2671 61.3582 59.8693 61.298C59.7388 61.3381 59.809 61.3381 59.789 61.2679C59.7689 61.1274 59.7087 60.9869 59.6585 60.8464L59.4076 60.2745C59.2269 59.8029 59.6986 59.4617 60.1202 59.4216C59.7388 59.5019 59.3072 59.823 59.518 60.2444L59.789 60.7963C59.8492 60.9568 60.1302 61.4685 59.789 61.4685C59.2771 61.5789 58.5243 61.0872 58.163 60.6357C56.6475 59.0503 59.8994 57.3044 61.0436 56.6221L61.0536 56.6121Z" fill="#E96C47"/>
<path d="M62.1173 57.0737C62.1173 57.0737 58.2532 59.3113 59.016 60.6158C59.016 60.6158 59.8089 61.9402 60.8828 61.8399C60.8828 61.8399 61.1237 61.9101 60.5616 60.7964C60.5616 60.7964 60.1602 60.104 61.1839 59.8732" fill="#EE8A46"/>
<path d="M62.1173 57.0737C61.1739 57.8062 58.0524 59.6123 59.3974 60.9569C59.7888 61.4185 60.3308 61.8198 60.933 61.7596C60.8025 61.7998 60.8728 61.7998 60.8527 61.7295C60.8326 61.5891 60.7724 61.4486 60.7222 61.3081L60.4713 60.7362C60.2906 60.2646 60.7624 59.9234 61.1839 59.8833C60.8025 59.9635 60.3709 60.2846 60.5817 60.7061L60.8527 61.2579C60.9129 61.4185 61.1939 61.9302 60.8527 61.9302C60.3408 62.0406 59.5881 61.5489 59.2267 61.0974C57.7112 59.512 60.9631 57.7661 62.1073 57.0838L62.1173 57.0737Z" fill="#E96C47"/>
<path d="M63.6728 57.6355C63.6728 57.6355 59.8087 59.8731 60.5715 61.1775C60.5715 61.1775 61.3643 62.502 62.4383 62.4017C62.4383 62.4017 63.5825 62.4217 63.0204 61.308" fill="#EE8A46"/>
<path d="M63.6731 57.6355C62.7397 58.3881 59.5982 60.1741 60.9531 61.5187C61.3345 61.9602 61.8464 62.3816 62.4486 62.3415C62.6895 62.3415 62.9906 62.2813 63.111 62.0605C63.2315 61.8297 63.1411 61.5387 63.0307 61.308C63.1512 61.5387 63.2716 61.8197 63.1612 62.0906C62.559 62.9134 61.2944 62.3013 60.8026 61.6491C59.277 60.0537 62.5088 58.3278 63.6731 57.6355Z" fill="#E96C47"/>
<path d="M52.733 67.7406C52.733 67.7406 52.8534 64.1776 51.2476 64.1475C51.2476 64.1475 49.6116 64.1274 49.1097 65.1512C49.1097 65.1512 48.909 65.3218 50.2339 65.4422C50.2339 65.4422 51.0769 65.4623 50.7156 66.5162" fill="#B96C3F"/>
<path d="M51.7193 69.606C51.7193 69.606 51.8598 64.88 50.2539 64.8399C50.2539 64.8399 48.6179 64.8198 48.1161 65.8433C48.1161 65.8433 47.9153 66.0139 49.2402 66.1343C49.2402 66.1343 50.0833 66.1543 49.722 67.2079" fill="#B96C3F"/>
<path d="M50.6755 70.4893C50.6755 70.4893 50.8161 65.7633 49.2102 65.7232C49.2102 65.7232 47.5742 65.7031 47.0723 66.7266C47.0723 66.7266 46.9017 68.2016 48.2266 68.322" fill="#B96C3F"/>
<path d="M64.9678 43.3781L77.3531 39.9456L65.028 43.5889L64.9678 43.3781Z" fill="#E96C47"/>
<path d="M65.008 43.6282C65.0911 43.6282 65.1585 43.5608 65.1585 43.4777C65.1585 43.3946 65.0911 43.3271 65.008 43.3271C64.9248 43.3271 64.8574 43.3946 64.8574 43.4777C64.8574 43.5608 64.9248 43.6282 65.008 43.6282Z" fill="#B96C3F"/>
<path d="M65.5399 44.1799L75.0146 46.3077L65.4998 44.3907L65.5399 44.1799Z" fill="#E96C47"/>
<path d="M65.5199 44.4407C65.6031 44.4407 65.6705 44.3733 65.6705 44.2902C65.6705 44.2071 65.6031 44.1396 65.5199 44.1396C65.4368 44.1396 65.3694 44.2071 65.3694 44.2902C65.3694 44.3733 65.4368 44.4407 65.5199 44.4407Z" fill="#B96C3F"/>
<path d="M73.0775 34.1259C73.0775 34.1259 66.1722 30.9953 64.5965 37.1261C64.5965 37.1261 63.914 39.4439 64.5764 39.6045C64.5764 39.6045 68.5409 41.4407 72.4753 39.1228C72.4753 39.1228 74.9243 36.8953 73.5191 34.4771C73.4388 34.3366 73.2281 34.1861 73.0775 34.1359V34.1259Z" fill="#B96C3F"/>
<path d="M64.8775 37.0456C64.8775 37.0456 65.9815 31.9885 71.843 32.9818Z" fill="#B96C3F"/>
<path d="M72.4051 34.6482C72.4051 34.6482 73.6497 34.7385 74.0812 33.0222Z" fill="#B96C3F"/>
<path d="M72.5656 35.1301C72.5656 35.1301 75.0547 35.6621 75.7372 31.9585Z" fill="#B96C3F"/>
<path d="M66.2525 38.4304C66.2525 38.4304 72.6158 41.4908 71.8932 35.1092C71.8932 35.1092 66.1221 32.1291 66.2525 38.4304Z" fill="#22131C"/>
<path d="M70.0264 37.2269C70.564 37.2269 70.9999 36.791 70.9999 36.2534C70.9999 35.7157 70.564 35.2798 70.0264 35.2798C69.4887 35.2798 69.0528 35.7157 69.0528 36.2534C69.0528 36.791 69.4887 37.2269 70.0264 37.2269Z" fill="#EEEDED"/>
<path d="M68.1796 47.2907C68.1796 47.2907 68.6513 47.8026 69.1732 46.7588C69.1732 46.7588 68.9424 47.0499 68.1796 47.2907Z" fill="#B96C3F"/>
<path d="M65.6302 85.8514C65.6302 85.8514 67.6577 85.3095 68.1294 84.7777C68.1294 84.7777 82.9436 79.4296 85.9446 68.934C87.6308 63.044 89.1564 59.7528 89.8288 55.3077C92.6391 36.8451 85.493 28.8279 86.045 26.2592C86.1654 25.6772 86.3461 25.2859 86.3361 25.1956C86.3361 25.1956 86.8379 23.9915 83.6763 20.911C83.6763 20.911 80.8158 17.4292 79.5613 17.1483C79.5613 17.1483 80.0731 18.1617 79.7018 18.0714C79.7018 18.0714 76.1588 17.3991 76.6707 15.4023C76.6707 15.4023 75.3759 18.252 78.8386 18.4326C78.8386 18.4326 81.1069 18.8942 83.4555 22.2456C84.1882 23.2991 84.9309 24.6236 85.6234 26.3194C86.0048 27.2526 88.2531 26.3696 88.2731 27.4733C88.2932 28.577 89.0359 28.9082 89.2969 29.4701C89.5578 30.032 88.7148 31.1157 89.5779 31.3364C90.4411 31.5572 90.3608 33.564 90.3608 33.564C89.9192 36.2029 93.7532 40.7985 93.7532 40.7985C94.3253 42.0327 93.5424 41.7618 94.0142 43.287C94.1547 43.7285 96.9248 46.3473 96.5434 46.9795C95.9111 48.0331 98.8418 51.5149 98.1694 53.1805C97.7278 54.2843 100.367 62.3617 99.6247 64.6494C99.3035 64.0875 98.8519 63.3049 98.9322 64.6394C99.1028 67.469 97.0252 72.4459 97.0252 72.4459C97.4668 70.7 96.714 71.6632 96.714 71.6632C96.3126 72.7268 96.3326 72.0947 95.2688 75.0748C94.2149 78.0549 92.2075 81.1956 92.2075 81.1956C92.2075 81.1956 92.0771 81.5167 91.3243 82.4097C90.5716 83.3027 89.7586 84.3663 89.7586 84.3663C89.7787 82.1689 87.2394 87.0856 87.2394 87.0856C85.3525 88.4502 85.0915 86.9351 83.9473 88.6308C82.8132 90.3266 77.4234 93.0659 77.4234 93.0659C77.4234 93.0659 67.0153 96.5778 59.0863 92.7046C59.0863 92.7046 61.726 93.2966 61.7561 92.0925C61.7561 92.0925 54.4895 93.1762 48.9592 89.4436C48.9592 89.4436 52.8033 90.4169 52.8334 88.9318" fill="#B96C3F"/>
<path d="M75.8577 93.5079C75.8577 93.5079 76.3796 93.528 77.6443 93.538C78.8989 93.5581 79.5312 92.3939 80.6352 91.2497C81.7393 90.1155 75.8577 93.4979 75.8577 93.4979V93.5079Z" fill="#B96C3F"/>
<path d="M101.18 27.152L100.478 26.1486L100.709 25.9881C100.94 25.8275 101.1 25.6369 101.19 25.4061C101.281 25.1753 101.241 24.9345 101.06 24.6837C100.96 24.5432 100.859 24.4529 100.749 24.4027C100.638 24.3525 100.518 24.3325 100.408 24.3325C100.287 24.3325 100.167 24.3726 100.036 24.4228C99.9158 24.483 99.7953 24.5532 99.6749 24.6335C99.5344 24.7338 99.424 24.8141 99.3437 24.8843C99.2533 24.9546 99.1931 25.0449 99.153 25.1352C99.1028 25.2255 99.0827 25.3258 99.0827 25.4362C99.0827 25.5466 99.1028 25.6871 99.1429 25.8576L99.3738 26.841C99.444 27.1219 99.4742 27.3728 99.4541 27.5935C99.434 27.8143 99.3738 28.015 99.2835 28.1956C99.1731 28.3762 99.0325 28.5568 98.8519 28.7174C98.6712 28.8879 98.4504 29.0585 98.1895 29.2391C97.8884 29.4498 97.5973 29.6104 97.3062 29.7208C97.0152 29.8412 96.7241 29.8913 96.4631 29.8813C96.1821 29.8813 95.9111 29.791 95.6501 29.6405C95.3892 29.49 95.1483 29.2492 94.9175 28.9281C94.7468 28.6873 94.6364 28.4264 94.5762 28.1554C94.516 27.8845 94.506 27.6236 94.5561 27.3628C94.6063 27.1019 94.6967 26.8611 94.8372 26.6303C94.9777 26.3995 95.1684 26.2088 95.3992 26.0383L95.7706 25.7774L96.4732 26.7808L96.152 27.0015C95.9713 27.132 95.8409 27.3025 95.7706 27.5133C95.7003 27.724 95.7505 27.9548 95.9312 28.2156C96.0516 28.3862 96.1721 28.5066 96.2825 28.5668C96.4029 28.627 96.5233 28.6571 96.6538 28.6371C96.7843 28.627 96.9148 28.5769 97.0453 28.4966C97.1757 28.4163 97.3263 28.326 97.4869 28.2156C97.6675 28.0852 97.8181 27.9748 97.9285 27.8745C98.0389 27.7842 98.1192 27.6838 98.1593 27.5935C98.1995 27.4932 98.2196 27.3929 98.2095 27.2825C98.2095 27.1721 98.1794 27.0417 98.1493 26.8811L97.9385 25.958C97.8181 25.3961 97.8482 24.9445 98.0389 24.5934C98.2296 24.2422 98.5407 23.911 98.9824 23.6C99.2433 23.4194 99.5243 23.2789 99.8054 23.1886C100.096 23.0983 100.377 23.0581 100.648 23.0883C100.919 23.1083 101.18 23.1886 101.431 23.3291C101.682 23.4695 101.913 23.6903 102.114 23.9913C102.284 24.2422 102.405 24.5031 102.455 24.774C102.505 25.0449 102.515 25.3058 102.465 25.5667C102.365 26.0884 102.104 26.4898 101.692 26.7808L101.2 27.1219L101.18 27.152Z" fill="white"/>
<path d="M104.673 33.4034L98.611 35.0289L98.0991 34.0756L100.97 31.7578V31.7377L97.4467 32.8615L96.9349 31.9083L101.622 27.7341L102.244 28.878L99.2634 31.3364V31.3564L102.937 30.1624L103.399 31.0052L100.367 33.3833V33.4034L104.071 32.2495L104.693 33.3933L104.673 33.4034Z" fill="white"/>
<path d="M103.037 38.7916L102.124 36.544L101.351 36.855C101.17 36.9253 101.06 37.0356 101 37.1761C100.94 37.3166 100.95 37.4671 101.02 37.6377C101.11 37.8584 101.231 37.9688 101.381 37.9889C101.542 38.0089 101.682 37.9889 101.813 37.9588L102.274 39.0926C101.773 39.2933 101.311 39.3033 100.879 39.1227C100.658 39.0424 100.468 38.912 100.297 38.7414C100.127 38.5708 99.986 38.3501 99.8756 38.0892C99.7351 37.728 99.6849 37.3969 99.7251 37.0858C99.7753 36.7747 99.8957 36.5038 100.086 36.273C100.207 36.1326 100.347 36.0021 100.528 35.9018C100.709 35.7914 100.919 35.6911 101.15 35.6008L103.017 34.8382C103.248 34.7479 103.469 34.6776 103.67 34.6275C103.88 34.5773 104.071 34.5673 104.252 34.5873C104.553 34.6174 104.824 34.7278 105.075 34.9184C105.326 35.1091 105.526 35.38 105.667 35.7412C105.777 36.0021 105.827 36.253 105.817 36.5038C105.817 36.7547 105.767 36.9855 105.667 37.1962C105.456 37.6276 105.095 37.9487 104.593 38.1594L103.027 38.7916H103.037ZM103.007 36.1727L103.459 37.2865L104.101 37.0256C104.322 36.9353 104.462 36.8249 104.523 36.6744C104.593 36.5339 104.593 36.3734 104.523 36.2028C104.452 36.0322 104.342 35.9219 104.191 35.8617C104.041 35.8014 103.86 35.8215 103.649 35.9118L103.007 36.1727Z" fill="white"/>
<path d="M104.372 43.0359L103.659 40.708L102.867 40.9488C102.686 41.009 102.555 41.0994 102.485 41.2398C102.415 41.3703 102.415 41.5308 102.465 41.7014C102.535 41.9221 102.646 42.0526 102.796 42.0827C102.947 42.1128 103.097 42.1228 103.228 42.0927L103.589 43.2667C103.077 43.4273 102.616 43.3971 102.204 43.1764C101.993 43.0761 101.813 42.9255 101.652 42.7449C101.492 42.5543 101.371 42.3335 101.291 42.0626C101.18 41.6914 101.16 41.3602 101.231 41.0492C101.301 40.7482 101.451 40.4873 101.662 40.2665C101.793 40.1361 101.953 40.0257 102.134 39.9354C102.325 39.8451 102.535 39.7648 102.776 39.6846L104.703 39.0925C104.944 39.0223 105.165 38.9721 105.376 38.932C105.586 38.9019 105.777 38.9019 105.958 38.932C106.249 38.9922 106.52 39.1327 106.751 39.3334C106.982 39.5441 107.152 39.8351 107.273 40.1963C107.353 40.4672 107.383 40.7181 107.363 40.9689C107.333 41.2198 107.273 41.4405 107.152 41.6412C106.901 42.0526 106.51 42.3436 105.988 42.5041L104.372 42.9958V43.0359ZM104.583 40.4271L104.934 41.581L105.607 41.3803C105.827 41.3101 105.978 41.2097 106.058 41.0693C106.139 40.9288 106.149 40.7783 106.098 40.5977C106.048 40.417 105.948 40.2966 105.807 40.2264C105.667 40.1562 105.486 40.1562 105.255 40.2264L104.583 40.4271Z" fill="white"/>
<path d="M107.985 43.0862L109.792 42.6647L110.073 43.8588L108.266 44.2802L108.437 45.0227L107.504 45.2435L107.333 44.501L104.041 45.2736C103.9 45.3037 103.79 45.3438 103.72 45.394C103.649 45.4442 103.599 45.4943 103.579 45.5746C103.559 45.6549 103.549 45.7251 103.559 45.8154C103.569 45.9057 103.599 46.0161 103.629 46.1466L102.505 46.4074L102.395 45.9158C102.335 45.6449 102.325 45.404 102.365 45.2034C102.405 45.0027 102.485 44.8321 102.586 44.6816C102.686 44.5311 102.826 44.4307 102.977 44.3404C103.138 44.2501 103.288 44.1899 103.449 44.1498L107.062 43.3069L106.921 42.7049L107.855 42.4841L107.995 43.0862H107.985Z" fill="white"/>
<path d="M102.947 48.7655L111.468 47.8123L111.669 49.5983C111.709 49.9896 111.689 50.3308 111.599 50.6218C111.508 50.9128 111.378 51.1536 111.197 51.3543C111.016 51.555 110.806 51.7055 110.555 51.8058C110.304 51.9162 110.043 51.9764 109.762 52.0065L109.451 52.0366C109.22 52.0667 109.019 52.0667 108.859 52.0466C108.698 52.0266 108.547 51.9864 108.417 51.9262C108.176 51.8158 107.965 51.6252 107.775 51.3643C107.674 51.6653 107.494 51.8961 107.243 52.0667C106.992 52.2272 106.64 52.3376 106.189 52.3878L105.707 52.438C104.954 52.5182 104.362 52.4079 103.92 52.0868C103.479 51.7657 103.218 51.2138 103.128 50.4111L102.947 48.7454V48.7655ZM107.032 49.5481L104.302 49.8492L104.362 50.3709C104.392 50.6218 104.442 50.8124 104.533 50.9429C104.623 51.0733 104.733 51.1737 104.864 51.2238C104.994 51.274 105.155 51.3041 105.336 51.3041C105.516 51.3041 105.707 51.284 105.908 51.264C106.118 51.2439 106.309 51.2038 106.47 51.1636C106.63 51.1235 106.761 51.0633 106.861 50.973C106.962 50.8827 107.032 50.7623 107.072 50.6218C107.112 50.4813 107.112 50.3007 107.092 50.0699L107.032 49.5281V49.5481ZM110.454 49.1669L108.106 49.4277L108.166 49.9796C108.206 50.391 108.347 50.6519 108.567 50.7623C108.788 50.8827 109.089 50.9128 109.481 50.8726C109.862 50.8325 110.143 50.7221 110.314 50.5415C110.484 50.3609 110.555 50.0699 110.505 49.6686L110.444 49.1669H110.454Z" fill="white"/>
<path d="M106.068 57.0546L106.028 54.6257H105.195C105.004 54.6458 104.854 54.6959 104.753 54.8063C104.653 54.9168 104.603 55.0673 104.603 55.248C104.603 55.4788 104.673 55.6394 104.814 55.7096C104.954 55.7799 105.085 55.8301 105.225 55.8401L105.245 57.0646C104.703 57.0646 104.272 56.9141 103.941 56.5929C103.77 56.4323 103.629 56.2416 103.539 56.0208C103.449 55.8 103.388 55.5491 103.378 55.268C103.378 54.8866 103.449 54.5554 103.599 54.2844C103.76 54.0134 103.971 53.8027 104.232 53.6521C104.392 53.5618 104.573 53.5016 104.784 53.4614C104.994 53.4313 105.225 53.4112 105.466 53.4012L107.473 53.3711C107.724 53.3711 107.955 53.3711 108.156 53.4112C108.357 53.4514 108.547 53.5016 108.708 53.5819C108.979 53.7224 109.19 53.9231 109.36 54.1941C109.521 54.4551 109.611 54.7863 109.621 55.1677C109.621 55.4487 109.581 55.6996 109.491 55.9305C109.4 56.1613 109.27 56.362 109.099 56.5226C108.748 56.8538 108.296 57.0144 107.744 57.0245L106.058 57.0546H106.068ZM106.992 54.6056L107.012 55.81H107.714C107.945 55.8 108.126 55.7398 108.236 55.6294C108.347 55.519 108.407 55.3684 108.407 55.1877C108.407 55.0071 108.347 54.8565 108.226 54.7562C108.106 54.6558 107.935 54.5956 107.704 54.6056H107.002H106.992Z" fill="white"/>
<path d="M112 58.1574L111.94 59.3819L105.095 59.0406C104.864 59.0306 104.703 59.0607 104.613 59.141C104.523 59.2213 104.462 59.3819 104.432 59.6127L103.278 59.5525C103.288 59.2715 103.328 59.0206 103.378 58.7998C103.429 58.579 103.529 58.3883 103.67 58.2377C103.8 58.0872 103.971 57.9667 104.201 57.8965C104.422 57.8262 104.723 57.7961 105.075 57.8162L112 58.1674V58.1574Z" fill="white"/>
<path d="M103.338 59.823L111.849 60.8365L111.709 62.0506L106.61 61.4485V61.4686L109.079 63.2547L108.939 64.4688L106.65 62.7329L102.846 64.0474L103.007 62.7229L105.757 61.9302L104.904 61.2378L103.208 61.0371L103.348 59.813L103.338 59.823Z" fill="white"/>
<path d="M102.294 66.4955L102.907 66.6259V66.6059C102.726 66.4052 102.586 66.2045 102.505 66.0239C102.425 65.8433 102.415 65.6024 102.475 65.3115C102.505 65.171 102.555 65.0305 102.636 64.9001C102.706 64.7596 102.816 64.6392 102.967 64.5288C103.107 64.4184 103.288 64.3482 103.509 64.3081C103.73 64.2679 104.011 64.288 104.342 64.3582C104.683 64.4285 104.974 64.5188 105.215 64.6291C105.456 64.7395 105.647 64.89 105.797 65.0706C105.928 65.2513 106.018 65.462 106.048 65.7229C106.078 65.9837 106.048 66.3048 105.978 66.6761C105.978 66.7162 105.958 66.7564 105.948 66.8065C105.938 66.8567 105.928 66.8968 105.908 66.937C105.888 66.9771 105.878 67.0172 105.868 67.0775C105.858 67.1276 105.837 67.1878 105.817 67.248L106.44 67.3785C106.64 67.4186 106.821 67.4186 106.972 67.3584C107.122 67.2982 107.223 67.1577 107.273 66.9269C107.303 66.7664 107.283 66.6159 107.212 66.4654C107.142 66.3149 107.012 66.1945 106.821 66.1142L107.072 64.9502C107.604 65.0907 107.995 65.3717 108.256 65.763C108.377 65.9536 108.467 66.1644 108.507 66.4052C108.547 66.646 108.547 66.8968 108.487 67.1778C108.437 67.4286 108.347 67.6594 108.216 67.8601C108.086 68.0608 107.935 68.2314 107.744 68.3618C107.554 68.4822 107.333 68.5725 107.072 68.6127C106.821 68.6528 106.53 68.6428 106.219 68.5826L102.064 67.6996L102.315 66.4955H102.294ZM104.864 67.0373C104.914 66.9069 104.954 66.8065 104.974 66.7162C105.024 66.4553 105.014 66.2246 104.934 66.0138C104.854 65.8031 104.653 65.6627 104.332 65.5924C104.101 65.5422 103.91 65.5623 103.74 65.6426C103.579 65.7229 103.469 65.8633 103.429 66.054C103.388 66.2547 103.419 66.4353 103.529 66.5757C103.639 66.7162 103.81 66.8166 104.061 66.8667L104.874 67.0373H104.864Z" fill="white"/>
<path d="M102.244 74.894L101.742 74.7133C101.492 74.623 101.271 74.4926 101.09 74.312C100.899 74.1414 100.749 73.9307 100.638 73.7099C100.528 73.4792 100.458 73.2383 100.438 72.9775C100.418 72.7166 100.448 72.4557 100.548 72.2048C100.628 71.9841 100.739 71.7734 100.879 71.5727C101.02 71.372 101.2 71.2014 101.421 71.071C101.642 70.9405 101.883 70.8703 102.164 70.8302C102.445 70.79 102.766 70.8502 103.138 70.9807L107.574 72.5861C107.835 72.6865 108.066 72.8169 108.256 72.9875C108.447 73.1581 108.598 73.3587 108.708 73.5895C108.818 73.8103 108.869 74.0611 108.889 74.322C108.899 74.5829 108.858 74.8538 108.758 75.1348C108.557 75.6766 108.226 76.0579 107.744 76.2686C107.514 76.369 107.263 76.4292 106.982 76.4392C106.711 76.4392 106.43 76.3991 106.159 76.2987L105.707 76.1382L106.128 74.9843L106.51 75.1247C106.741 75.205 106.962 75.215 107.172 75.1448C107.383 75.0746 107.534 74.9341 107.614 74.7133C107.714 74.4224 107.694 74.2016 107.554 74.0411C107.413 73.8805 107.202 73.7501 106.931 73.6598L102.806 72.1747C102.575 72.0945 102.355 72.0744 102.164 72.1145C101.973 72.1547 101.823 72.3152 101.732 72.5761C101.702 72.6564 101.692 72.7366 101.682 72.837C101.682 72.9373 101.682 73.0276 101.722 73.128C101.763 73.2183 101.823 73.3086 101.913 73.3888C102.003 73.4691 102.124 73.5394 102.284 73.5996L102.676 73.74L102.254 74.894H102.244Z" fill="white"/>
<path d="M103.399 76.2988C103.619 76.3991 103.82 76.5195 104.001 76.6299C104.171 76.7503 104.322 76.8807 104.422 77.0312C104.603 77.2721 104.703 77.553 104.733 77.8641C104.764 78.1751 104.693 78.5062 104.533 78.8574C104.372 79.2086 104.151 79.4695 103.9 79.6401C103.639 79.8107 103.358 79.911 103.057 79.9311C102.877 79.9411 102.686 79.921 102.475 79.8608C102.274 79.8006 102.054 79.7204 101.833 79.61L100.016 78.7571C99.7953 78.6467 99.5946 78.5364 99.4139 78.426C99.2433 78.3056 99.0928 78.1751 98.9924 78.0246C98.8117 77.7838 98.7114 77.5028 98.6812 77.1918C98.6511 76.8807 98.7214 76.5496 98.882 76.1984C99.0426 75.8472 99.2634 75.5863 99.5143 75.4158C99.7753 75.2452 100.056 75.1448 100.357 75.1248C100.538 75.1147 100.729 75.1348 100.94 75.195C101.15 75.2552 101.351 75.3355 101.582 75.4459L103.399 76.3088V76.2988ZM100.879 76.4693C100.669 76.369 100.488 76.3489 100.337 76.3891C100.187 76.4392 100.066 76.5396 99.9961 76.7102C99.9158 76.8807 99.9057 77.0312 99.9659 77.1818C100.026 77.3323 100.157 77.4527 100.367 77.553L102.535 78.5765C102.746 78.6768 102.927 78.6969 103.077 78.6568C103.228 78.6166 103.348 78.4962 103.419 78.3357C103.499 78.1651 103.509 78.0146 103.449 77.8641C103.388 77.7136 103.258 77.5932 103.047 77.4928L100.879 76.4693Z" fill="white"/>
<path d="M97.7378 78.6167L102.224 81.1352L102.515 80.6135L103.358 81.0851L103.067 81.6068L103.79 82.0182C104.051 82.1587 104.242 82.3293 104.382 82.4999C104.523 82.6705 104.603 82.8611 104.653 83.0618C104.703 83.2524 104.703 83.4431 104.653 83.6438C104.613 83.8344 104.543 84.015 104.442 84.1956L104.161 84.6873L103.158 84.1254L103.429 83.6438C103.549 83.433 103.479 83.2625 103.238 83.122L102.465 82.6805L102.013 83.4832L101.17 83.0116L101.622 82.2089L97.1356 79.6903L97.7378 78.6167Z" fill="white"/>
<path d="M96.4932 80.7742L100.839 83.5235L101.16 83.0118L101.973 83.5235L101.652 84.0353L102.355 84.4768C102.606 84.6373 102.796 84.8079 102.917 84.9885C103.037 85.1691 103.117 85.3698 103.158 85.5705C103.198 85.7611 103.188 85.9618 103.138 86.1424C103.087 86.3331 103.007 86.5137 102.897 86.6842L102.596 87.1659L101.622 86.5438L101.923 86.0722C102.054 85.8715 101.993 85.6909 101.763 85.5404L101.01 85.0587L100.518 85.8314L99.705 85.3196L100.197 84.547L95.8509 81.7977L96.5033 80.7642L96.4932 80.7742Z" fill="white"/>
<path d="M95.2387 87.1056L96.684 85.1489L96.0115 84.6573C95.8609 84.5469 95.7003 84.4967 95.5598 84.5268C95.4093 84.5469 95.2788 84.6372 95.1684 84.7877C95.0279 84.9784 94.9978 85.1389 95.058 85.2794C95.1182 85.4199 95.2085 85.5403 95.3089 85.6306L94.5762 86.6239C94.1447 86.3029 93.8937 85.9115 93.8235 85.46C93.7833 85.2292 93.7934 84.9984 93.8435 84.7576C93.9038 84.5168 94.0142 84.286 94.1748 84.0653C94.4056 83.7542 94.6666 83.5435 94.9476 83.413C95.2387 83.2926 95.5297 83.2525 95.8308 83.2926C96.0115 83.3127 96.1922 83.3829 96.3829 83.4733C96.5735 83.5736 96.7642 83.694 96.965 83.8445L98.5809 85.0386C98.7816 85.1891 98.9522 85.3296 99.1028 85.4801C99.2534 85.6306 99.3638 85.7911 99.4441 85.9517C99.5745 86.2226 99.6247 86.5136 99.5946 86.8246C99.5645 87.1357 99.434 87.4467 99.2032 87.7578C99.0325 87.9886 98.8418 88.1591 98.6311 88.2896C98.4203 88.42 98.1995 88.4903 97.9687 88.5204C97.4869 88.5605 97.0252 88.42 96.5836 88.0989L95.2286 87.0955L95.2387 87.1056ZM97.4568 85.7209L96.7442 86.6942L97.3062 87.1056C97.4969 87.246 97.6676 87.3063 97.8281 87.2862C97.9887 87.2661 98.1192 87.1858 98.2296 87.0353C98.34 86.8848 98.3802 86.7343 98.35 86.5738C98.3199 86.4132 98.2095 86.2727 98.0289 86.1323L97.4668 85.7209H97.4568Z" fill="white"/>
<path d="M92.338 90.4469L93.9439 88.6207L93.3216 88.0688C93.1811 87.9384 93.0306 87.8782 92.88 87.8983C92.7295 87.9083 92.599 87.9886 92.4685 88.1291C92.318 88.2996 92.2678 88.4602 92.318 88.6107C92.3681 88.7612 92.4384 88.8816 92.5287 88.9819L91.7158 89.9051C91.3143 89.5539 91.0935 89.1425 91.0634 88.6709C91.0433 88.4401 91.0634 88.2093 91.1437 87.9785C91.224 87.7478 91.3544 87.527 91.5351 87.3163C91.786 87.0253 92.067 86.8347 92.3681 86.7444C92.6692 86.644 92.9603 86.634 93.2614 86.7042C93.4421 86.7444 93.6227 86.8246 93.7934 86.935C93.974 87.0454 94.1547 87.1859 94.3353 87.3564L95.8408 88.6809C96.0315 88.8415 96.1921 89.0121 96.3226 89.1726C96.4631 89.3331 96.5535 89.5037 96.6237 89.6743C96.7241 89.9553 96.7542 90.2563 96.694 90.5573C96.6338 90.8683 96.4832 91.1593 96.2222 91.4503C96.0315 91.661 95.8308 91.8216 95.61 91.932C95.3892 92.0423 95.1584 92.1025 94.9275 92.1126C94.4458 92.1126 93.9941 91.932 93.5926 91.5707L92.328 90.457L92.338 90.4469ZM94.6665 89.2629L93.8737 90.166L94.3956 90.6275C94.5662 90.778 94.7368 90.8583 94.8974 90.8483C95.058 90.8483 95.1985 90.768 95.3189 90.6376C95.4394 90.5071 95.4896 90.3466 95.4795 90.1961C95.4594 90.0355 95.3691 89.885 95.1985 89.7245L94.6766 89.2629H94.6665Z" fill="white"/>
<path d="M85.5833 100.701L86.5769 99.979L86.7375 100.2C86.8981 100.431 87.0988 100.581 87.3196 100.671C87.5505 100.762 87.7914 100.711 88.0423 100.531C88.1828 100.431 88.2731 100.33 88.3133 100.21C88.3635 100.099 88.3835 99.979 88.3735 99.8686C88.3735 99.7482 88.3334 99.6278 88.2731 99.5074C88.2129 99.387 88.1427 99.2666 88.0624 99.1462C87.962 99.0057 87.8717 98.8953 87.8014 98.815C87.7211 98.7348 87.6408 98.6645 87.5505 98.6244C87.4602 98.5843 87.3598 98.5642 87.2494 98.5642C87.139 98.5642 86.9985 98.5843 86.8278 98.6344L85.8442 98.8853C85.5632 98.9555 85.3123 98.9856 85.0915 98.9756C84.8707 98.9555 84.6699 98.9053 84.4792 98.815C84.2986 98.7147 84.1179 98.5642 83.9473 98.3836C83.7767 98.203 83.606 97.9822 83.4153 97.7314C83.2046 97.4404 83.034 97.1494 82.9135 96.8484C82.7931 96.5574 82.7328 96.2764 82.7328 96.0055C82.7328 95.7246 82.8131 95.4536 82.9637 95.1927C83.1142 94.9319 83.3451 94.681 83.6663 94.4502C83.9071 94.2796 84.1681 94.1592 84.4291 94.089C84.7001 94.0188 84.961 94.0087 85.222 94.0489C85.4829 94.089 85.7238 94.1793 85.9546 94.3198C86.1855 94.4502 86.3862 94.6409 86.5569 94.8717L86.8278 95.2429L85.8342 95.9553L85.6134 95.6443C85.4829 95.4637 85.3123 95.3332 85.0915 95.263C84.8807 95.1927 84.6398 95.253 84.3889 95.4336C84.2183 95.554 84.1079 95.6744 84.0477 95.7948C83.9874 95.9152 83.9674 96.0356 83.9774 96.166C83.9874 96.2965 84.0376 96.4269 84.1179 96.5574C84.1982 96.6878 84.2986 96.8383 84.409 96.9888C84.5395 97.1695 84.6499 97.32 84.7502 97.4203C84.8506 97.5307 84.9409 97.6009 85.0313 97.6511C85.1316 97.6912 85.232 97.7013 85.3424 97.7013C85.4528 97.7013 85.5833 97.6712 85.7439 97.631L86.6673 97.4103C87.2193 97.2798 87.681 97.2999 88.0322 97.4905C88.3835 97.6812 88.7248 97.9822 89.0359 98.4237C89.2266 98.6846 89.3671 98.9555 89.4675 99.2465C89.5679 99.5375 89.598 99.8084 89.5779 100.089C89.5679 100.36 89.4876 100.621 89.3471 100.872C89.2066 101.123 88.9958 101.354 88.6947 101.564C88.4438 101.745 88.1828 101.865 87.9118 101.916C87.6408 101.976 87.3799 101.976 87.1189 101.936C86.597 101.835 86.1855 101.584 85.8944 101.183L85.5431 100.691L85.5833 100.701Z" fill="white"/>
<path d="M79.3705 104.294L77.6442 98.2635L78.5877 97.7317L80.9463 100.561H80.9664L79.7821 97.0594L80.7255 96.5276L84.9711 101.143L83.8369 101.775L81.3277 98.8354H81.3076L82.5622 102.488L81.7191 102.959L79.3003 99.9693H79.2802L80.4947 103.652L79.3605 104.284L79.3705 104.294Z" fill="white"/>
<path d="M73.9507 102.739L76.1889 101.785L75.8677 101.023C75.7975 100.842 75.6871 100.732 75.5466 100.672C75.406 100.611 75.2455 100.631 75.0849 100.702C74.8741 100.792 74.7537 100.912 74.7336 101.073C74.7135 101.233 74.7336 101.374 74.7637 101.504L73.6295 101.986C73.4188 101.494 73.3987 101.023 73.5794 100.601C73.6597 100.381 73.7901 100.19 73.9507 100.009C74.1213 99.8287 74.3321 99.6882 74.5931 99.5779C74.9444 99.4274 75.2856 99.3772 75.5867 99.4173C75.8978 99.4575 76.1688 99.5779 76.4097 99.7585C76.5502 99.8689 76.6807 100.019 76.7911 100.2C76.9015 100.381 77.0019 100.581 77.1023 100.812L77.8851 102.658C77.9855 102.889 78.0557 103.1 78.1059 103.311C78.1561 103.511 78.1762 103.712 78.1561 103.893C78.126 104.194 78.0156 104.474 77.8349 104.725C77.6543 104.976 77.3833 105.177 77.022 105.327C76.761 105.438 76.5101 105.488 76.2592 105.498C76.0083 105.498 75.7774 105.458 75.5666 105.357C75.125 105.157 74.8038 104.796 74.5931 104.294L73.9306 102.739H73.9507ZM76.5703 102.678L75.4663 103.15L75.7373 103.792C75.8276 104.003 75.948 104.143 76.0885 104.214C76.2291 104.284 76.3896 104.274 76.5603 104.204C76.7309 104.133 76.8413 104.023 76.8915 103.872C76.9417 103.722 76.9316 103.541 76.8313 103.331L76.5603 102.688L76.5703 102.678Z" fill="white"/>
<path d="M69.7454 104.143L72.0638 103.391L71.8029 102.598C71.7427 102.417 71.6423 102.287 71.5118 102.227C71.3813 102.156 71.2208 102.156 71.0501 102.217C70.8293 102.287 70.6988 102.397 70.6687 102.558C70.6386 102.708 70.6386 102.859 70.6687 102.989L69.4944 103.371C69.3339 102.859 69.3539 102.397 69.5647 101.986C69.6651 101.775 69.8056 101.595 69.9963 101.434C70.187 101.273 70.4078 101.153 70.6687 101.063C71.0401 100.942 71.3713 100.922 71.6724 100.993C71.9735 101.063 72.2445 101.203 72.4553 101.404C72.5858 101.534 72.7062 101.685 72.7965 101.876C72.8969 102.066 72.9772 102.277 73.0575 102.518L73.6798 104.434C73.7601 104.665 73.8102 104.896 73.8504 105.107C73.8805 105.317 73.8805 105.508 73.8504 105.688C73.7902 105.99 73.6597 106.25 73.4589 106.491C73.2482 106.732 72.9671 106.903 72.5958 107.023C72.3248 107.113 72.0739 107.143 71.823 107.123C71.572 107.103 71.3512 107.033 71.1405 106.923C70.7189 106.682 70.4279 106.291 70.2673 105.779L69.7454 104.173V104.143ZM72.3549 104.314L71.2107 104.685L71.4215 105.347C71.4917 105.568 71.6021 105.719 71.7326 105.799C71.8731 105.879 72.0337 105.889 72.2044 105.829C72.375 105.769 72.5055 105.668 72.5657 105.528C72.6359 105.387 72.6359 105.197 72.5657 104.976L72.3549 104.314Z" fill="white"/>
<path d="M69.7353 107.756L70.187 109.552L68.9926 109.853L68.5409 108.057L67.8083 108.237L67.5774 107.304L68.3101 107.124L67.4871 103.842C67.457 103.702 67.4068 103.592 67.3666 103.521C67.3165 103.451 67.2562 103.401 67.186 103.381C67.1157 103.361 67.0354 103.351 66.9451 103.371C66.8548 103.381 66.7444 103.411 66.6038 103.441L66.3228 102.317L66.8146 102.197C67.0856 102.127 67.3265 102.117 67.5272 102.157C67.728 102.197 67.9086 102.267 68.0491 102.378C68.1897 102.478 68.3101 102.608 68.4004 102.769C68.4908 102.919 68.561 103.08 68.6012 103.23L69.5045 106.833L70.0966 106.682L70.3275 107.615L69.7353 107.766V107.756Z" fill="white"/>
<path d="M63.9842 102.799L65.0682 111.308L63.2917 111.528C62.9003 111.579 62.559 111.559 62.268 111.478C61.9769 111.398 61.736 111.268 61.5353 111.087C61.3346 110.906 61.184 110.696 61.0736 110.445C60.9632 110.194 60.8929 109.933 60.8528 109.652L60.8126 109.341C60.7825 109.11 60.7725 108.91 60.7926 108.749C60.8126 108.589 60.8427 108.438 60.903 108.308C61.0134 108.067 61.194 107.846 61.455 107.655C61.1539 107.555 60.913 107.384 60.7424 107.134C60.5718 106.883 60.4614 106.542 60.4011 106.08L60.3409 105.598C60.2405 104.846 60.351 104.254 60.6621 103.812C60.9732 103.371 61.5253 103.1 62.3282 102.99L63.9842 102.779V102.799ZM63.2616 106.893L62.9204 104.174L62.3984 104.244C62.1475 104.274 61.9669 104.334 61.8364 104.424C61.7059 104.515 61.6156 104.625 61.5554 104.766C61.4951 104.906 61.4751 105.057 61.4851 105.237C61.4851 105.418 61.5052 105.608 61.5353 105.809C61.5654 106.02 61.5955 106.21 61.6457 106.361C61.6858 106.522 61.7561 106.652 61.8364 106.752C61.9267 106.853 62.0472 106.923 62.1877 106.953C62.3282 106.983 62.5088 106.993 62.7397 106.953L63.2817 106.883L63.2616 106.893ZM63.6932 110.314L63.3921 107.976L62.8401 108.047C62.4386 108.097 62.1776 108.237 62.0572 108.458C61.9468 108.679 61.9167 108.98 61.9568 109.371C62.007 109.752 62.1174 110.033 62.2981 110.204C62.4787 110.375 62.7698 110.435 63.1813 110.385L63.6832 110.324L63.6932 110.314Z" fill="white"/>
<path d="M55.7441 106.05L58.173 105.969L58.1428 105.137C58.1428 104.946 58.0826 104.795 57.9622 104.695C57.8518 104.595 57.7012 104.545 57.5206 104.555C57.2897 104.555 57.1392 104.635 57.0589 104.775C56.9786 104.916 56.9485 105.056 56.9284 105.187L55.7039 105.227C55.6838 104.685 55.8344 104.254 56.1556 103.912C56.3061 103.742 56.4968 103.601 56.7176 103.501C56.9384 103.401 57.1894 103.341 57.4704 103.331C57.8518 103.32 58.183 103.391 58.454 103.541C58.725 103.692 58.9458 103.902 59.0963 104.163C59.1867 104.324 59.2569 104.505 59.2971 104.715C59.3372 104.926 59.3573 105.147 59.3673 105.398L59.4275 107.404C59.4275 107.655 59.4276 107.886 59.3974 108.087C59.3673 108.287 59.3172 108.478 59.2369 108.649C59.0963 108.919 58.8956 109.14 58.6347 109.301C58.3737 109.471 58.0425 109.562 57.6611 109.572C57.3801 109.572 57.1191 109.542 56.8883 109.451C56.6574 109.361 56.4567 109.241 56.2961 109.07C55.9649 108.719 55.7942 108.267 55.7742 107.725L55.724 106.04L55.7441 106.05ZM58.2031 106.933L56.9987 106.973L57.0187 107.675C57.0187 107.906 57.089 108.077 57.1994 108.197C57.3098 108.317 57.4603 108.368 57.641 108.358C57.8217 108.358 57.9722 108.287 58.0726 108.167C58.183 108.047 58.2231 107.876 58.2231 107.635L58.2031 106.933Z" fill="white"/>
<path d="M54.7504 112L53.5259 111.96L53.7668 105.117C53.7668 104.886 53.7367 104.725 53.6564 104.635C53.5761 104.545 53.4155 104.485 53.1847 104.454L53.2248 103.301C53.5059 103.301 53.7568 103.341 53.9776 103.391C54.1984 103.441 54.3891 103.531 54.5497 103.672C54.7103 103.802 54.8207 103.973 54.901 104.194C54.9813 104.414 55.0114 104.705 55.0013 105.067L54.7605 112H54.7504Z" fill="white"/>
<path d="M52.9338 103.371L52.0505 111.9L50.826 111.769L51.3479 106.662H51.3279L49.5815 109.15L48.357 109.02L50.0632 106.702L48.6882 102.919L50.0131 103.06L50.8461 105.799L51.5286 104.936L51.7093 103.24L52.9338 103.371Z" fill="white"/>
<path d="M46.2493 102.427L46.1289 103.039H46.1489C46.3497 102.859 46.5404 102.718 46.7311 102.628C46.9117 102.538 47.1526 102.528 47.4437 102.588C47.5842 102.618 47.7247 102.668 47.8652 102.738C48.0057 102.809 48.1262 102.919 48.2366 103.06C48.347 103.2 48.4273 103.381 48.4674 103.601C48.5076 103.822 48.4975 104.103 48.4373 104.434C48.3671 104.775 48.2868 105.066 48.1764 105.307C48.076 105.548 47.9254 105.749 47.7448 105.889C47.5742 106.03 47.3533 106.11 47.0924 106.15C46.8314 106.18 46.5103 106.17 46.1289 106.09C46.0887 106.09 46.0486 106.07 45.9984 106.06C45.9482 106.06 45.9081 106.04 45.8679 106.02C45.8278 106 45.7876 105.989 45.7274 105.979C45.6672 105.969 45.617 105.949 45.5568 105.929L45.4363 106.551C45.3962 106.752 45.4062 106.933 45.4664 107.083C45.5267 107.234 45.6672 107.334 45.898 107.374C46.0586 107.404 46.2092 107.374 46.3597 107.304C46.5103 107.224 46.6207 107.093 46.701 106.903L47.8753 107.133C47.7347 107.665 47.4738 108.056 47.0723 108.327C46.8816 108.458 46.6708 108.538 46.43 108.588C46.1891 108.638 45.9382 108.628 45.6571 108.588C45.4062 108.538 45.1754 108.448 44.9746 108.327C44.7739 108.207 44.6033 108.046 44.4628 107.856C44.3323 107.665 44.252 107.444 44.2018 107.194C44.1516 106.943 44.1617 106.652 44.2219 106.341L45.0449 102.167L46.2493 102.407V102.427ZM45.7475 105.006C45.8779 105.056 45.9883 105.086 46.0686 105.106C46.3296 105.157 46.5604 105.137 46.7712 105.056C46.982 104.966 47.1125 104.765 47.1827 104.444C47.2329 104.213 47.2128 104.023 47.1225 103.852C47.0422 103.692 46.9017 103.591 46.701 103.551C46.5002 103.511 46.3196 103.551 46.179 103.662C46.0385 103.772 45.9482 103.953 45.898 104.193L45.7374 105.006H45.7475Z" fill="white"/>
<path d="M37.8486 102.508L38.0192 102.006C38.1095 101.755 38.24 101.534 38.4106 101.344C38.5813 101.153 38.782 101.003 39.0128 100.882C39.2437 100.762 39.4846 100.692 39.7455 100.672C40.0065 100.651 40.2674 100.672 40.5184 100.772C40.7392 100.852 40.9499 100.952 41.1607 101.093C41.3715 101.233 41.5321 101.404 41.6625 101.625C41.793 101.835 41.8733 102.086 41.9135 102.367C41.9536 102.648 41.9034 102.969 41.7729 103.341L40.2373 107.806C40.147 108.067 40.0165 108.297 39.8459 108.498C39.6753 108.699 39.4745 108.849 39.2537 108.96C39.0329 109.07 38.782 109.13 38.521 109.15C38.2601 109.17 37.9891 109.12 37.7081 109.03C37.1661 108.839 36.7746 108.508 36.5639 108.037C36.4535 107.806 36.3932 107.555 36.3832 107.284C36.3732 107.013 36.4133 106.732 36.5137 106.451L36.6743 106L37.8385 106.401L37.7081 106.792C37.6278 107.023 37.6278 107.234 37.7081 107.455C37.7783 107.665 37.9289 107.806 38.1497 107.886C38.4407 107.986 38.6616 107.966 38.8121 107.816C38.9727 107.665 39.0931 107.465 39.1835 107.184L40.6087 103.04C40.689 102.809 40.709 102.588 40.6589 102.397C40.6087 102.207 40.4581 102.056 40.1871 101.966C40.1068 101.936 40.0266 101.926 39.9262 101.926C39.8258 101.926 39.7355 101.936 39.6351 101.976C39.5448 102.016 39.4645 102.076 39.3742 102.167C39.2838 102.257 39.2236 102.387 39.1734 102.538L39.0329 102.939L37.8687 102.538L37.8486 102.508Z" fill="white"/>
<path d="M36.4735 103.682C36.3731 103.913 36.2627 104.113 36.1423 104.284C36.0219 104.465 35.8914 104.605 35.7509 104.715C35.51 104.896 35.229 105.006 34.9178 105.037C34.6067 105.077 34.2755 105.006 33.9242 104.856C33.5729 104.695 33.3119 104.485 33.1313 104.234C32.9506 103.983 32.8502 103.702 32.8302 103.401C32.8201 103.22 32.8302 103.03 32.8904 102.819C32.9506 102.618 33.0309 102.398 33.1313 102.177L33.9643 100.341C34.0647 100.11 34.1751 99.9091 34.2955 99.7386C34.416 99.568 34.5465 99.4175 34.687 99.3071C34.9279 99.1265 35.2089 99.0161 35.51 98.976C35.8211 98.9358 36.1523 99.0061 36.5036 99.1566C36.8549 99.3171 37.1159 99.5279 37.2965 99.7787C37.4772 100.04 37.5776 100.321 37.5976 100.612C37.6077 100.792 37.5976 100.983 37.5374 101.194C37.4772 101.394 37.3969 101.615 37.2965 101.836L36.4635 103.672L36.4735 103.682ZM36.2627 101.163C36.3631 100.953 36.3832 100.772 36.333 100.622C36.2828 100.471 36.1724 100.361 36.0018 100.28C35.8312 100.2 35.6806 100.2 35.5301 100.26C35.3795 100.321 35.2591 100.461 35.1687 100.672L34.1851 102.859C34.0848 103.07 34.0647 103.25 34.1149 103.401C34.1651 103.552 34.2755 103.662 34.4461 103.742C34.6167 103.822 34.7673 103.822 34.9178 103.762C35.0684 103.702 35.1888 103.562 35.2791 103.351L36.2627 101.163Z" fill="white"/>
<path d="M34.0547 98.0627L31.6057 102.588L32.1376 102.879L31.676 103.722L31.144 103.431L30.7526 104.163C30.6121 104.424 30.4515 104.625 30.2808 104.765C30.1002 104.906 29.9195 104.996 29.7188 105.046C29.5281 105.097 29.3374 105.107 29.1467 105.066C28.956 105.026 28.7653 104.956 28.5947 104.866L28.0928 104.595L28.6449 103.581L29.1367 103.842C29.3474 103.953 29.5181 103.892 29.6586 103.642L30.0801 102.859L29.2772 102.427L29.7389 101.585L30.5418 102.016L32.9908 97.4907L34.0747 98.0727L34.0547 98.0627Z" fill="white"/>
<path d="M31.8666 96.8387L29.1868 101.224L29.6987 101.535L29.1968 102.357L28.685 102.046L28.2534 102.759C28.1028 103.01 27.9322 103.2 27.7516 103.331C27.5709 103.461 27.3802 103.541 27.1795 103.582C26.9888 103.622 26.788 103.622 26.6074 103.572C26.4167 103.521 26.236 103.441 26.0654 103.341L25.5836 103.05L26.1858 102.066L26.6575 102.357C26.8683 102.488 27.0389 102.428 27.1895 102.187L27.6512 101.424L26.8683 100.943L27.3702 100.12L28.153 100.601L30.8328 96.2166L31.8767 96.8587L31.8666 96.8387Z" fill="white"/>
<path d="M25.5033 95.6845L27.4806 97.0993L27.9624 96.427C28.0728 96.2665 28.1129 96.116 28.0928 95.9655C28.0627 95.815 27.9724 95.6946 27.8218 95.5842C27.6311 95.4537 27.4705 95.4136 27.33 95.4838C27.1895 95.5541 27.0691 95.6344 26.9787 95.7347L25.9751 95.0223C26.2862 94.5808 26.6776 94.3299 27.1293 94.2497C27.3601 94.2095 27.591 94.2095 27.8319 94.2597C28.0728 94.3099 28.3036 94.4202 28.5344 94.5808C28.8456 94.8015 29.0664 95.0624 29.1969 95.3434C29.3273 95.6343 29.3675 95.9253 29.3273 96.2264C29.3073 96.407 29.2471 96.5976 29.1567 96.7782C29.0664 96.9689 28.9459 97.1595 28.7954 97.3602L27.6311 98.9958C27.4906 99.1964 27.3401 99.3771 27.1895 99.5276C27.039 99.6781 26.8884 99.7985 26.7178 99.8687C26.4468 99.9992 26.1557 100.049 25.8446 100.029C25.5335 100.009 25.2223 99.8788 24.9011 99.658C24.6703 99.4975 24.4896 99.3068 24.3592 99.0961C24.2287 98.8854 24.1484 98.6646 24.1183 98.4338C24.0681 97.9522 24.1986 97.4907 24.5197 97.0492L25.5033 95.6745V95.6845ZM26.9185 97.882L25.9349 97.1796L25.5335 97.7515C25.403 97.9422 25.3428 98.1128 25.3628 98.2733C25.3829 98.4339 25.4732 98.5643 25.6138 98.6747C25.7543 98.785 25.9149 98.8151 26.0754 98.785C26.236 98.7549 26.3765 98.6446 26.5171 98.4539L26.9185 97.882Z" fill="white"/>
<path d="M22.121 92.8349L23.9677 94.4203L24.5097 93.7882C24.6302 93.6377 24.6904 93.4972 24.6804 93.3467C24.6703 93.1962 24.59 93.0657 24.4495 92.9453C24.2689 92.7948 24.1083 92.7446 23.9677 92.8048C23.8172 92.855 23.6968 92.9353 23.5964 93.0256L22.663 92.2229C23.0143 91.8115 23.4157 91.5907 23.8875 91.5506C24.1183 91.5305 24.3491 91.5506 24.58 91.6208C24.8108 91.6911 25.0417 91.8215 25.2525 92.0021C25.5435 92.253 25.7443 92.5239 25.8446 92.8249C25.945 93.1259 25.9651 93.4169 25.9048 93.7179C25.8647 93.8986 25.7944 94.0792 25.684 94.2598C25.5736 94.4404 25.4331 94.621 25.2725 94.8117L23.9677 96.3368C23.8072 96.5275 23.6466 96.688 23.486 96.8285C23.3254 96.969 23.1648 97.0693 22.9841 97.1295C22.7031 97.2399 22.402 97.26 22.1009 97.2098C21.7898 97.1596 21.4887 97.0091 21.1976 96.7583C20.9868 96.5776 20.8262 96.377 20.7058 96.1562C20.5954 95.9355 20.5352 95.7047 20.5251 95.4739C20.5251 94.9923 20.6857 94.5407 21.0471 94.1293L22.1411 92.845L22.121 92.8349ZM23.3455 95.1528L22.4321 94.3702L21.9805 94.902C21.8299 95.0826 21.7597 95.2431 21.7597 95.4037C21.7597 95.5642 21.84 95.7047 21.9805 95.8251C22.121 95.9455 22.2715 95.9957 22.4321 95.9756C22.5927 95.9555 22.7433 95.8652 22.8938 95.6846L23.3455 95.1528Z" fill="white"/>
<path d="M11.7631 86.2326L12.4958 87.2159L12.275 87.3865C12.0542 87.5571 11.8936 87.7477 11.8133 87.9785C11.7229 88.2093 11.7832 88.4501 11.9638 88.701C12.0642 88.8314 12.1746 88.9317 12.285 88.9719C12.3954 89.012 12.5158 89.0321 12.6262 89.0321C12.7467 89.022 12.8671 88.9819 12.9876 88.9217C13.108 88.8615 13.2284 88.7913 13.3389 88.701C13.4693 88.6006 13.5797 88.5103 13.6701 88.43C13.7604 88.3498 13.8106 88.2695 13.8608 88.1792C13.9109 88.0889 13.921 87.9885 13.921 87.8782C13.921 87.7678 13.8909 87.6273 13.8507 87.4567L13.5898 86.4834C13.5095 86.2025 13.4794 85.9516 13.4894 85.7309C13.4994 85.5101 13.5496 85.3095 13.64 85.1188C13.7403 84.9382 13.8808 84.7576 14.0615 84.587C14.2422 84.4164 14.4529 84.2358 14.7038 84.0452C14.9949 83.8244 15.286 83.6538 15.577 83.5334C15.8681 83.403 16.1491 83.3428 16.4201 83.3428C16.7012 83.3428 16.9722 83.413 17.2431 83.5535C17.5041 83.694 17.7651 83.9247 17.9959 84.2358C18.1766 84.4766 18.297 84.7275 18.3673 84.9984C18.4375 85.2693 18.4576 85.5302 18.4174 85.7911C18.3773 86.052 18.297 86.2928 18.1665 86.5236C18.036 86.7544 17.8554 86.955 17.6245 87.1356L17.2532 87.4066L16.5205 86.4232L16.8316 86.1924C17.0123 86.062 17.1327 85.8814 17.203 85.6707C17.2733 85.46 17.203 85.2191 17.0223 84.9683C16.9019 84.7977 16.7815 84.6873 16.661 84.6271C16.5406 84.5669 16.4201 84.5469 16.2897 84.5669C16.1592 84.587 16.0287 84.6271 15.8982 84.7174C15.7677 84.7977 15.6172 84.8981 15.4666 85.0185C15.286 85.1489 15.1455 85.2693 15.0351 85.3697C14.9247 85.47 14.8544 85.5603 14.8143 85.6606C14.7741 85.761 14.7641 85.8613 14.7741 85.9717C14.7741 86.0821 14.8042 86.2125 14.8444 86.3731L15.0752 87.2962C15.2157 87.8481 15.1956 88.3096 15.025 88.6608C14.8444 89.022 14.5433 89.3632 14.1117 89.6743C13.8507 89.8649 13.5797 90.0154 13.2987 90.1158C13.0177 90.2161 12.7366 90.2562 12.4657 90.2462C12.1947 90.2362 11.9337 90.1659 11.6828 90.0255C11.4319 89.895 11.191 89.6743 10.9802 89.3933C10.7996 89.1525 10.6791 88.8916 10.6189 88.6207C10.5587 88.3498 10.5486 88.0889 10.5888 87.828C10.6791 87.3062 10.92 86.8948 11.3215 86.5938L11.8032 86.2326H11.7631Z" fill="white"/>
<path d="M8.07956 80.0918L14.0815 78.2756L14.6235 79.2088L11.8233 81.6069V81.627L15.306 80.3928L15.848 81.326L11.2913 85.6406L10.6389 84.5168L13.5496 81.9682V81.9481L9.91628 83.2626L9.43452 82.4297L12.3853 79.9614V79.9413L8.72191 81.2056L8.06952 80.0818L8.07956 80.0918Z" fill="white"/>
<path d="M9.54489 74.6432L10.5285 76.8707L11.2913 76.5296C11.4719 76.4493 11.5824 76.3389 11.6325 76.1985C11.6827 76.058 11.6727 75.8974 11.5924 75.7369C11.5021 75.5262 11.3716 75.4058 11.221 75.3957C11.0604 75.3857 10.9199 75.3957 10.7894 75.4359L10.2876 74.3121C10.7794 74.0913 11.2411 74.0713 11.6727 74.2318C11.8935 74.3121 12.0942 74.4325 12.2749 74.6031C12.4555 74.7736 12.5961 74.9844 12.7165 75.2352C12.8771 75.5864 12.9373 75.9175 12.8972 76.2286C12.857 76.5396 12.7466 76.8105 12.566 77.0514C12.4555 77.2019 12.315 77.3223 12.1344 77.4427C11.9537 77.5531 11.753 77.6634 11.5221 77.7638L9.68541 78.5765C9.45456 78.6769 9.24379 78.7571 9.04305 78.8073C8.84232 78.8575 8.64159 78.8776 8.46093 78.8675C8.15982 78.8475 7.87879 78.7371 7.62787 78.5565C7.36692 78.3759 7.16619 78.1049 7.0056 77.7537C6.89519 77.4929 6.83497 77.242 6.82494 76.9912C6.8149 76.7403 6.86508 76.5095 6.95541 76.2988C7.15615 75.8573 7.50743 75.5262 7.99923 75.3054L9.54489 74.6231V74.6432ZM9.6553 77.252L9.16349 76.1483L8.52114 76.4292C8.31037 76.5196 8.16986 76.64 8.10964 76.7905C8.04942 76.941 8.04942 77.0915 8.12971 77.2621C8.21001 77.4327 8.32041 77.543 8.47096 77.5932C8.62151 77.6434 8.80217 77.6233 9.01295 77.533L9.6553 77.252Z" fill="white"/>
<path d="M8.07957 70.449L8.86244 72.7468L9.64531 72.4759C9.82597 72.4157 9.94641 72.3154 10.0167 72.1749C10.0769 72.0344 10.0869 71.8839 10.0167 71.7133C9.94641 71.4926 9.82597 71.3722 9.67542 71.3421C9.52486 71.312 9.37431 71.312 9.24384 71.3421L8.8524 70.1781C9.36428 70.0075 9.82597 70.0176 10.2475 70.2283C10.4583 70.3286 10.649 70.4691 10.8096 70.6497C10.9702 70.8303 11.1006 71.0511 11.191 71.322C11.3114 71.6832 11.3415 72.0244 11.2813 72.3254C11.2211 72.6365 11.0806 72.8973 10.8798 73.1181C10.7594 73.2586 10.5988 73.3689 10.4181 73.4693C10.2274 73.5696 10.0167 73.6599 9.78582 73.7402L7.87884 74.3924C7.64799 74.4727 7.41715 74.5329 7.21641 74.573C7.00564 74.6132 6.81494 74.6132 6.63428 74.573C6.33318 74.5229 6.07222 74.3924 5.83134 74.1917C5.59046 73.9911 5.4098 73.7101 5.28936 73.3388C5.19903 73.0679 5.15888 72.8171 5.17895 72.5662C5.19903 72.3154 5.25925 72.0946 5.36965 71.8839C5.61053 71.4625 5.98189 71.1615 6.5038 70.9909L8.09965 70.449H8.07957ZM7.94909 73.0579L7.55766 71.914L6.89524 72.1348C6.67443 72.205 6.52388 72.3154 6.45362 72.4558C6.38336 72.5963 6.37333 72.7569 6.43355 72.9274C6.49377 73.098 6.59413 73.2184 6.74468 73.2887C6.8852 73.3589 7.0759 73.3489 7.29671 73.2686L7.95913 73.0479L7.94909 73.0579Z" fill="white"/>
<path d="M4.47633 70.5392L2.67976 71.0208L2.35858 69.8368L4.15516 69.3552L3.96446 68.6227L4.89788 68.3719L5.08858 69.1043L8.36055 68.2314C8.50107 68.1912 8.60144 68.1511 8.67169 68.1009C8.74195 68.0508 8.79213 67.9906 8.81221 67.9203C8.83228 67.8501 8.84232 67.7698 8.81221 67.6795C8.79213 67.5892 8.77206 67.4788 8.73191 67.3484L9.84599 67.0474L9.97647 67.539C10.0467 67.8099 10.0668 68.0508 10.0267 68.2514C9.9865 68.4521 9.91625 68.6327 9.81588 68.7732C9.71551 68.9137 9.58503 69.0341 9.43448 69.1344C9.28393 69.2348 9.12335 69.295 8.97279 69.3351L5.38968 70.2884L5.55027 70.8804L4.61685 71.1312L4.45626 70.5392H4.47633Z" fill="white"/>
<path d="M9.34422 64.6895L0.853133 65.8936L0.602214 64.1176C0.541994 63.7262 0.562068 63.3851 0.642362 63.0941C0.722656 62.8031 0.853135 62.5523 1.02376 62.3516C1.19438 62.1509 1.40515 61.9903 1.65607 61.88C1.90699 61.7696 2.16795 61.6893 2.44898 61.6492L2.76012 61.6091C2.99096 61.579 3.1917 61.5689 3.35228 61.579C3.51287 61.589 3.66342 61.6291 3.7939 61.6793C4.03478 61.7796 4.25559 61.9602 4.45632 62.2211C4.54665 61.9201 4.71728 61.6793 4.95816 61.5087C5.19904 61.3381 5.55033 61.2177 6.00198 61.1575L6.47371 61.0873C7.21643 60.9769 7.81863 61.0873 8.27029 61.3883C8.72194 61.6893 9.00297 62.2412 9.11337 63.0339L9.35426 64.6895H9.34422ZM1.8267 64.5189L4.16526 64.1878L4.08497 63.6359C4.02474 63.2346 3.88423 62.9737 3.66342 62.8633C3.44261 62.7529 3.13147 62.7228 2.75008 62.783C2.36868 62.8332 2.09769 62.9536 1.92706 63.1342C1.75644 63.3148 1.70626 63.6159 1.75644 64.0172L1.8267 64.5189ZM5.23919 64.0373L7.95915 63.646L7.88889 63.1242C7.84874 62.8834 7.78852 62.6927 7.69819 62.5623C7.60786 62.4318 7.49746 62.3415 7.35694 62.2914C7.21643 62.2412 7.06588 62.2211 6.88522 62.2211C6.70456 62.2211 6.51385 62.2512 6.31312 62.2813C6.10235 62.3114 5.91165 62.3516 5.7611 62.4017C5.61055 62.4519 5.48007 62.5121 5.37971 62.6024C5.27934 62.6927 5.20908 62.8131 5.17897 62.9637C5.14886 63.1041 5.14886 63.2847 5.17897 63.5155L5.25926 64.0574L5.23919 64.0373Z" fill="white"/>
<path d="M5.96179 56.5117L6.0722 58.9399L6.90525 58.8998C7.09594 58.8998 7.2465 58.8295 7.34686 58.7191C7.44723 58.6088 7.48738 58.4583 7.48738 58.2777C7.47734 58.0469 7.39705 57.8964 7.25653 57.8261C7.11602 57.7559 6.97551 57.7157 6.84503 57.7057L6.78481 56.4816C7.32679 56.4515 7.75837 56.602 8.10966 56.913C8.29032 57.0635 8.43083 57.2542 8.5312 57.4749C8.6416 57.6957 8.70183 57.9465 8.71186 58.2275C8.73194 58.6088 8.66168 58.9399 8.52116 59.2208C8.37061 59.5018 8.16987 59.7125 7.90892 59.8731C7.74833 59.9734 7.56767 60.0336 7.36694 60.0838C7.15617 60.1239 6.93536 60.154 6.68444 60.1641L4.67709 60.2544C4.42617 60.2644 4.19533 60.2544 3.98455 60.2343C3.77378 60.2142 3.58309 60.164 3.4225 60.0838C3.15151 59.9533 2.9307 59.7527 2.76007 59.4918C2.58945 59.2309 2.48908 58.9098 2.46901 58.5185C2.45897 58.2375 2.48908 57.9766 2.57941 57.7458C2.66974 57.5151 2.79018 57.3144 2.95077 57.1438C3.29202 56.8026 3.74367 56.622 4.28566 56.602L5.97183 56.5217L5.96179 56.5117ZM5.10867 58.9901L5.04845 57.786L4.34588 57.8161C4.11503 57.8261 3.94441 57.8863 3.834 58.0067C3.7236 58.1171 3.67342 58.2676 3.68345 58.4583C3.68345 58.6389 3.75371 58.7894 3.87415 58.8897C3.99459 58.9901 4.17525 59.0402 4.4061 59.0302L5.10867 59.0001V58.9901Z" fill="white"/>
<path d="M0 55.599L0.0200739 54.3745L6.87517 54.505C7.10601 54.505 7.2666 54.4749 7.35693 54.3846C7.44726 54.3043 7.49745 54.1437 7.52756 53.9128L8.68178 53.9329C8.68178 54.2139 8.65167 54.4649 8.60149 54.6857C8.5513 54.9065 8.46097 55.0972 8.3305 55.2578C8.21005 55.4183 8.02939 55.5388 7.80858 55.6191C7.58778 55.6994 7.29671 55.7395 6.93539 55.7295L0 55.599Z" fill="white"/>
<path d="M8.60151 53.6519L0.0602417 52.8994L0.170646 51.6752L5.27935 52.1268V52.1067L2.76013 50.4009L2.87053 49.1768L5.21913 50.8424L8.98291 49.4075L8.86246 50.7421L6.13247 51.615L7.00567 52.2873L8.71192 52.4378L8.60151 53.662V53.6519Z" fill="white"/>
<path d="M9.44457 46.9594L8.83233 46.849V46.869C9.02302 47.0697 9.16354 47.2604 9.25387 47.441C9.3442 47.6216 9.36427 47.8624 9.30405 48.1534C9.27394 48.2939 9.23379 48.4344 9.16354 48.5748C9.09328 48.7153 8.98288 48.8357 8.84236 48.9561C8.71188 49.0665 8.53123 49.1468 8.30038 49.1969C8.07957 49.2471 7.79854 49.2371 7.46733 49.1769C7.12608 49.1167 6.83501 49.0364 6.58409 48.9361C6.33318 48.8357 6.14248 48.6952 5.99193 48.5146C5.85141 48.3441 5.76108 48.1233 5.72094 47.8624C5.68079 47.6015 5.70086 47.2804 5.76108 46.9092C5.76108 46.869 5.78116 46.8289 5.78116 46.7787C5.78116 46.7286 5.80123 46.6884 5.8213 46.6483C5.84138 46.6082 5.85141 46.568 5.86145 46.5078C5.87149 46.4476 5.88152 46.3974 5.9016 46.3272L5.26928 46.2168C5.06855 46.1767 4.88788 46.1968 4.73733 46.257C4.58678 46.3172 4.48642 46.4677 4.44627 46.6985C4.41616 46.859 4.44627 47.0095 4.52656 47.16C4.60686 47.3105 4.73734 47.4209 4.92803 47.5012L4.71726 48.6752C4.18532 48.5447 3.78385 48.2838 3.51285 47.8925C3.38238 47.7019 3.29205 47.4912 3.24186 47.2604C3.19168 47.0196 3.19168 46.7687 3.24186 46.4878C3.29205 46.2369 3.37234 46.0061 3.49278 45.7954C3.61322 45.5847 3.76377 45.4141 3.95447 45.2736C4.14517 45.1432 4.36598 45.0529 4.61689 45.0027C4.86781 44.9525 5.15888 44.9525 5.47002 45.0027L9.65534 45.7553L9.43453 46.9694L9.44457 46.9594ZM6.86513 46.4978C6.81494 46.6282 6.78483 46.7386 6.77479 46.8189C6.72461 47.0798 6.74468 47.3105 6.83501 47.5213C6.92534 47.732 7.12608 47.8624 7.45729 47.9226C7.68814 47.9628 7.87884 47.9427 8.04946 47.8524C8.21005 47.7721 8.31042 47.6316 8.35056 47.431C8.39071 47.2303 8.35056 47.0497 8.24016 46.9192C8.12975 46.7787 7.94909 46.6884 7.69817 46.6483L6.87516 46.4978H6.86513Z" fill="white"/>
<path d="M9.2238 38.571L9.72563 38.7315C9.97655 38.8118 10.1974 38.9422 10.3981 39.1128C10.5988 39.2834 10.7494 39.474 10.8698 39.7048C10.9903 39.9256 11.0605 40.1764 11.0906 40.4273C11.1207 40.6881 11.0906 40.949 11.0103 41.2099C10.9401 41.4307 10.8297 41.6414 10.6992 41.8521C10.5587 42.0628 10.3881 42.2334 10.1773 42.3638C9.96652 42.4943 9.7156 42.5846 9.44461 42.6247C9.16358 42.6649 8.8424 42.6247 8.46101 42.5043L3.97458 41.0393C3.70359 40.949 3.47274 40.8286 3.27201 40.658C3.07127 40.4875 2.92072 40.2968 2.80028 40.0761C2.68988 39.8553 2.61962 39.6145 2.59955 39.3436C2.57947 39.0827 2.61962 38.8017 2.70995 38.5208C2.89061 37.9689 3.21179 37.5876 3.68351 37.3568C3.91436 37.2465 4.16528 37.1863 4.43627 37.1662C4.70726 37.1461 4.98829 37.1863 5.26932 37.2766L5.73101 37.4271L5.34961 38.591L4.95818 38.4606C4.72734 38.3904 4.50653 38.3904 4.29576 38.4606C4.08498 38.5308 3.94447 38.6813 3.87421 38.9021C3.78388 39.1931 3.80396 39.4138 3.95451 39.5643C4.10506 39.7148 4.31583 39.8353 4.58682 39.9256L8.75207 41.2902C8.99295 41.3705 9.20372 41.3805 9.39442 41.3303C9.58512 41.2802 9.72563 41.1196 9.81596 40.8487C9.83604 40.7684 9.85611 40.6881 9.85611 40.5878C9.85611 40.4875 9.83604 40.3972 9.80593 40.2968C9.76578 40.2065 9.70556 40.1262 9.60519 40.046C9.51486 39.9657 9.38438 39.8955 9.2238 39.8453L8.82232 39.7148L9.20372 38.5509L9.2238 38.571Z" fill="white"/>
<path d="M8.03941 37.1964C7.80856 37.0961 7.60783 36.9957 7.42717 36.8753C7.24651 36.7649 7.10599 36.6345 6.99559 36.494C6.81493 36.2532 6.69448 35.9823 6.65434 35.6712C6.61419 35.3602 6.67441 35.0291 6.82496 34.6779C6.97552 34.3267 7.18629 34.0558 7.43721 33.8751C7.68812 33.6945 7.96915 33.5842 8.27025 33.5641C8.45091 33.544 8.64161 33.5641 8.85239 33.6143C9.05312 33.6644 9.27393 33.7447 9.50477 33.845L11.3515 34.6478C11.5824 34.7481 11.7831 34.8484 11.9638 34.9689C12.1444 35.0792 12.285 35.2097 12.3954 35.3602C12.576 35.601 12.6965 35.8719 12.7366 36.183C12.7768 36.494 12.7165 36.8251 12.566 37.1763C12.4154 37.5275 12.2047 37.7985 11.9537 37.9791C11.7028 38.1597 11.4218 38.2701 11.1207 38.2901C10.94 38.3102 10.7493 38.2901 10.5386 38.24C10.3278 38.1898 10.117 38.1095 9.88617 38.0092L8.03941 37.2064V37.1964ZM10.5486 36.9456C10.7594 37.0359 10.94 37.0559 11.0906 37.0058C11.2411 36.9556 11.3515 36.8452 11.4218 36.6746C11.492 36.5041 11.5021 36.3435 11.4318 36.203C11.3716 36.0525 11.2311 35.9422 11.0203 35.8418L8.82227 34.8886C8.6115 34.7983 8.43084 34.7782 8.28029 34.8284C8.12974 34.8785 8.01934 34.9889 7.94908 35.1595C7.87882 35.3301 7.86879 35.4906 7.93904 35.6311C7.99926 35.7816 8.13978 35.892 8.35055 35.9923L10.5486 36.9456Z" fill="white"/>
<path d="M13.6199 34.7078L9.06317 32.3297L8.78214 32.8615L7.92902 32.42L8.21005 31.8882L7.47737 31.5069C7.21641 31.3664 7.01568 31.2159 6.87516 31.0453C6.73465 30.8748 6.63428 30.6841 6.58409 30.4935C6.53391 30.3028 6.52388 30.1122 6.55399 29.9115C6.59413 29.7208 6.65435 29.5302 6.74468 29.3596L7.00564 28.8579L8.02939 29.3897L7.76843 29.8814C7.65803 30.0921 7.72829 30.2627 7.97921 30.3931L8.7721 30.8045L9.19365 29.9918L10.0468 30.4333L9.62523 31.246L14.1819 33.6241L13.6098 34.7178L13.6199 34.7078Z" fill="white"/>
<path d="M14.8042 32.5004L10.378 29.8815L10.0668 30.4033L9.23377 29.9116L9.54491 29.3898L8.8323 28.9684C8.58138 28.8179 8.38065 28.6473 8.25017 28.4767C8.11969 28.2961 8.02936 28.1055 7.98922 27.9048C7.94907 27.7141 7.94907 27.5235 7.98922 27.3228C8.02936 27.1221 8.10966 26.9516 8.21003 26.781L8.50109 26.2893L9.49473 26.8813L9.2137 27.3529C9.09326 27.5636 9.15348 27.7342 9.39436 27.8747L10.1572 28.3262L10.6188 27.5436L11.4519 28.0352L10.9902 28.8179L15.4164 31.4368L14.7941 32.4903L14.8042 32.5004Z" fill="white"/>
<path d="M15.858 26.1286L14.473 28.1254L15.1555 28.597C15.316 28.7074 15.4666 28.7475 15.6171 28.7174C15.7677 28.6873 15.8881 28.597 15.9985 28.4465C16.129 28.2559 16.1591 28.0853 16.0889 27.9448C16.0186 27.8043 15.9383 27.6939 15.8279 27.5936L16.5305 26.5802C16.9721 26.8812 17.2331 27.2725 17.3234 27.724C17.3736 27.9548 17.3736 28.1856 17.3234 28.4264C17.2732 28.6672 17.1728 28.898 17.0123 29.1288C16.7914 29.4499 16.5405 29.6707 16.2595 29.8011C15.9785 29.9315 15.6774 29.9817 15.3863 29.9516C15.2056 29.9315 15.0149 29.8814 14.8242 29.781C14.6335 29.6907 14.4328 29.5703 14.2321 29.4298L12.576 28.286C12.3753 28.1455 12.1946 28.005 12.034 27.8545C11.8835 27.714 11.763 27.5535 11.6827 27.3929C11.5422 27.122 11.492 26.831 11.5121 26.52C11.5322 26.2089 11.6526 25.8878 11.8734 25.5768C12.034 25.346 12.2147 25.1654 12.4255 25.0349C12.6362 24.9045 12.857 24.8142 13.0879 24.7841C13.5697 24.7239 14.0313 24.8543 14.483 25.1654L15.8681 26.1186L15.858 26.1286ZM13.6801 27.5836L14.3626 26.5902L13.7905 26.1888C13.5998 26.0584 13.4191 25.9982 13.2685 26.0283C13.108 26.0484 12.9775 26.1387 12.8771 26.2892C12.7767 26.4397 12.7366 26.5902 12.7667 26.7507C12.7968 26.9113 12.9173 27.0518 13.108 27.1822L13.6801 27.5735V27.5836Z" fill="white"/>
<path d="M18.6683 22.687L17.1126 24.5634L17.755 25.0952C17.9056 25.2156 18.0561 25.2758 18.1966 25.2557C18.3472 25.2356 18.4776 25.1554 18.5981 25.0149C18.7486 24.8343 18.7888 24.6737 18.7386 24.5232C18.6784 24.3827 18.6081 24.2523 18.5078 24.152L19.2906 23.2088C19.7021 23.5499 19.933 23.9513 19.9731 24.4229C20.0032 24.6537 19.9731 24.8844 19.9129 25.1253C19.8426 25.356 19.7222 25.5868 19.5415 25.7975C19.2906 26.0986 19.0297 26.2992 18.7286 26.3996C18.4375 26.4999 18.1364 26.53 17.8453 26.4698C17.6647 26.4397 17.484 26.3594 17.3033 26.2591C17.1227 26.1487 16.932 26.0183 16.7413 25.8577L15.1956 24.5734C15.0049 24.4128 14.8343 24.2523 14.6938 24.1018C14.5533 23.9412 14.4529 23.7807 14.3827 23.6101C14.2722 23.3292 14.2421 23.0382 14.2923 22.7271C14.3425 22.4161 14.483 22.115 14.7339 21.814C14.9146 21.5933 15.1153 21.4327 15.3361 21.3224C15.557 21.212 15.7778 21.1417 16.0186 21.1317C16.5004 21.1116 16.9521 21.2822 17.3736 21.6334L18.6683 22.7071V22.687ZM16.3699 23.9412L17.1428 23.0181L16.6008 22.5666C16.4201 22.4161 16.2495 22.3458 16.0889 22.3559C15.9283 22.3559 15.7878 22.4361 15.6774 22.5866C15.557 22.7271 15.5068 22.8776 15.5268 23.0382C15.5469 23.1987 15.6473 23.3492 15.8279 23.4997L16.3699 23.9412Z" fill="white"/>
<path d="M25.0919 12.2414L24.1183 12.9939L23.9477 12.7732C23.7771 12.5524 23.5764 12.4019 23.3455 12.3216C23.1147 12.2414 22.8738 12.2915 22.6329 12.4822C22.5024 12.5825 22.4121 12.6929 22.3619 12.8033C22.3218 12.9137 22.3017 13.0341 22.3117 13.1444C22.3218 13.2648 22.3619 13.3853 22.4221 13.5057C22.4823 13.6261 22.5626 13.7465 22.6429 13.8569C22.7433 13.9873 22.8336 14.0977 22.9139 14.1779C22.9942 14.2582 23.0745 14.3184 23.1648 14.3586C23.2552 14.3987 23.3555 14.4188 23.4659 14.4087C23.5764 14.3987 23.7169 14.3786 23.8875 14.3285L24.8611 14.0475C25.1421 13.9672 25.393 13.9271 25.6138 13.9371C25.8346 13.9371 26.0354 13.9973 26.2261 14.0776C26.4167 14.1779 26.5974 14.3084 26.768 14.489C26.9387 14.6596 27.1294 14.8703 27.3201 15.1211C27.5409 15.4121 27.7115 15.6931 27.852 15.9841C27.9925 16.2751 28.0527 16.556 28.0527 16.8169C28.0527 17.0979 27.9925 17.3688 27.852 17.6397C27.7115 17.9106 27.4907 18.1615 27.1795 18.4023C26.9487 18.5829 26.6877 18.7133 26.4268 18.7836C26.1558 18.8538 25.8948 18.8739 25.6339 18.8438C25.3729 18.8137 25.132 18.7334 24.8912 18.603C24.6603 18.4725 24.4495 18.2919 24.2789 18.0712L23.9979 17.7099L24.9715 16.9574L25.2023 17.2584C25.3428 17.439 25.5134 17.5594 25.7343 17.6196C25.945 17.6798 26.1859 17.6196 26.4268 17.429C26.5974 17.2985 26.6978 17.1781 26.758 17.0577C26.8182 16.9373 26.8283 16.8169 26.8182 16.6865C26.7981 16.556 26.748 16.4256 26.6677 16.2951C26.5773 16.1647 26.477 16.0242 26.3666 15.8737C26.2261 15.6931 26.1056 15.5526 26.0052 15.4523C25.9049 15.3519 25.8045 15.2717 25.7142 15.2315C25.6138 15.1914 25.5134 15.1814 25.403 15.1914C25.2926 15.2014 25.1622 15.2315 25.0016 15.2717L24.0882 15.5225C23.5362 15.673 23.0745 15.663 22.7132 15.4924C22.3519 15.3218 22.0106 15.0208 21.6794 14.5893C21.4887 14.3385 21.3281 14.0676 21.2278 13.7866C21.1174 13.5057 21.0772 13.2247 21.0872 12.9538C21.0872 12.6829 21.1575 12.422 21.298 12.1611C21.4285 11.9002 21.6393 11.6694 21.9203 11.4487C22.1612 11.2681 22.4221 11.1376 22.6831 11.0774C22.9541 11.0172 23.215 10.9972 23.476 11.0273C24.0079 11.1075 24.4194 11.3483 24.7205 11.7397L25.0919 12.2213V12.2414Z" fill="white"/>
<path d="M31.1942 8.45874L33.1012 14.439L32.1678 15.0009L29.7188 12.2416H29.6987L30.9935 15.7033L30.0601 16.2652L25.674 11.78L26.7881 11.1077L29.3876 13.9775H29.4077L28.0427 10.3652L28.8657 9.86351L31.3749 12.7834H31.395L30.0701 9.14106L31.1842 8.46877L31.1942 8.45874Z" fill="white"/>
<path d="M36.6442 9.85346L34.4361 10.8769L34.7874 11.6295C34.8677 11.8001 34.9781 11.9205 35.1186 11.9606C35.2591 12.0108 35.4197 12.0007 35.5803 11.9205C35.7911 11.8201 35.9015 11.6997 35.9115 11.5392C35.9215 11.3786 35.9115 11.2382 35.8613 11.1077L36.9754 10.596C37.1962 11.0876 37.2363 11.5492 37.0758 11.9807C37.0055 12.2014 36.8851 12.4021 36.7144 12.5827C36.5438 12.7633 36.3431 12.9138 36.0821 13.0342C35.7308 13.1948 35.3996 13.265 35.0885 13.2249C34.7773 13.1948 34.4963 13.0844 34.2554 12.9038C34.1049 12.7934 33.9744 12.653 33.864 12.4723C33.7436 12.3018 33.6332 12.091 33.5328 11.8703L32.6897 10.0441C32.5893 9.81332 32.499 9.60261 32.4488 9.40192C32.3886 9.20124 32.3685 9.0106 32.3786 8.81995C32.3986 8.51893 32.499 8.23798 32.6696 7.97709C32.8503 7.7162 33.1112 7.50549 33.4625 7.34494C33.7135 7.22454 33.9644 7.16433 34.2153 7.1543C34.4662 7.1543 34.6971 7.1844 34.9078 7.26467C35.3494 7.45532 35.6907 7.80651 35.9215 8.29818L36.6341 9.82335L36.6442 9.85346ZM34.0346 10.004L35.1286 9.50226L34.8376 8.87012C34.7372 8.6594 34.6168 8.51893 34.4662 8.45872C34.3157 8.39852 34.1651 8.40855 33.9945 8.48882C33.8239 8.5691 33.7235 8.67947 33.6733 8.82998C33.6231 8.98049 33.6532 9.16111 33.7436 9.37182L34.0346 10.004Z" fill="white"/>
<path d="M40.8094 8.31841L38.521 9.1412L38.8021 9.92385C38.8723 10.1045 38.9727 10.2249 39.1032 10.2851C39.2437 10.3453 39.3942 10.3453 39.5648 10.2851C39.7857 10.2048 39.9061 10.0944 39.9362 9.93389C39.9663 9.77334 39.9563 9.63286 39.9362 9.50242L41.0904 9.09103C41.2711 9.60276 41.2611 10.0643 41.0603 10.4858C40.97 10.6965 40.8295 10.8871 40.6488 11.0577C40.4682 11.2283 40.2473 11.3587 39.9864 11.449C39.6251 11.5795 39.2838 11.6096 38.9827 11.5494C38.6816 11.4892 38.4106 11.3587 38.1798 11.158C38.0393 11.0376 37.9188 10.8871 37.8185 10.6965C37.7181 10.5058 37.6278 10.3051 37.5374 10.0643L36.8549 8.16789C36.7746 7.93711 36.7044 7.71636 36.6642 7.50565C36.6241 7.29493 36.614 7.10429 36.6442 6.92367C36.6943 6.62265 36.8148 6.35173 37.0155 6.11092C37.2163 5.8701 37.4973 5.67945 37.8586 5.54901C38.1196 5.44867 38.3805 5.40853 38.6314 5.4286C38.8824 5.43863 39.1032 5.49884 39.3139 5.60921C39.7355 5.84 40.0466 6.21126 40.2273 6.72299L40.7994 8.30837L40.8094 8.31841ZM38.1898 8.2281L39.324 7.8167L39.0931 7.15446C39.0128 6.93371 38.9024 6.79323 38.7619 6.71296C38.6214 6.64272 38.4608 6.63269 38.2902 6.69289C38.1196 6.7531 37.9991 6.86347 37.9389 7.00395C37.8787 7.15446 37.8887 7.33507 37.959 7.55582L38.1898 8.21807V8.2281Z" fill="white"/>
<path d="M40.709 4.70605L40.2072 2.91999L41.3915 2.58887L41.8933 4.37493L42.626 4.16421L42.887 5.08734L42.1543 5.29806L43.0777 8.54909C43.1178 8.68957 43.158 8.78991 43.2081 8.86014C43.2583 8.93038 43.3185 8.97052 43.3888 9.00062C43.4591 9.02069 43.5394 9.02069 43.6297 9.00062C43.72 8.98055 43.8304 8.96048 43.9609 8.92035L44.272 10.0341L43.7903 10.1746C43.5193 10.2549 43.2784 10.2749 43.0777 10.2348C42.8769 10.2047 42.6963 10.1345 42.5557 10.0341C42.4152 9.93379 42.2848 9.80335 42.1944 9.65283C42.0941 9.50232 42.0238 9.35181 41.9837 9.19127L40.9699 5.61915L40.3778 5.78973L40.1168 4.8666L40.709 4.69602V4.70605Z" fill="white"/>
<path d="M46.6006 9.48233L45.2557 1.0136L47.0322 0.732646C47.4236 0.672442 47.7649 0.682477 48.0559 0.752715C48.347 0.822953 48.5979 0.953396 48.7986 1.12397C48.9994 1.29455 49.17 1.50527 49.2804 1.74608C49.4009 1.99694 49.4811 2.25782 49.5213 2.52874L49.5715 2.8398C49.6116 3.07058 49.6217 3.27126 49.6116 3.4318C49.6016 3.59235 49.5715 3.74286 49.5213 3.8733C49.4209 4.11412 49.2503 4.33487 48.9893 4.54558C49.3005 4.63589 49.5414 4.79643 49.712 5.03725C49.8927 5.27807 50.0131 5.61923 50.0833 6.07076L50.1636 6.54236C50.2841 7.28488 50.1937 7.88692 49.8926 8.33845C49.5915 8.78998 49.0496 9.08097 48.2567 9.21141L46.6006 9.4723V9.48233ZM46.6508 1.96683L47.0221 4.29473L47.5742 4.20443C47.9756 4.14422 48.2366 3.99371 48.337 3.77296C48.4474 3.55221 48.4674 3.24116 48.4072 2.84983C48.347 2.46854 48.2265 2.19762 48.0359 2.02704C47.8452 1.85646 47.5541 1.80629 47.1526 1.87653L46.6508 1.9568V1.96683ZM47.1928 5.36838L47.6243 8.07757L48.1463 7.99729C48.3871 7.95716 48.5778 7.88692 48.7083 7.79661C48.8388 7.70631 48.9291 7.5859 48.9793 7.44542C49.0295 7.30495 49.0496 7.15444 49.0395 6.97382C49.0295 6.79321 49.0094 6.60256 48.9693 6.40188C48.9392 6.19117 48.899 6.00052 48.8488 5.85001C48.7986 5.6995 48.7284 5.56906 48.6381 5.46872C48.5377 5.36838 48.4173 5.30817 48.2767 5.27807C48.1362 5.24797 47.9556 5.24797 47.7247 5.27807L47.1928 5.35834V5.36838Z" fill="white"/>
<path d="M54.7605 5.98033L52.3316 6.13085L52.3818 6.96367C52.3918 7.15432 52.452 7.30483 52.5725 7.39514C52.6929 7.48544 52.8334 7.53561 53.0241 7.52558C53.255 7.51554 53.4055 7.43527 53.4758 7.2948C53.546 7.15432 53.5761 7.01384 53.5862 6.87337L54.8107 6.79309C54.8408 7.33493 54.7103 7.77643 54.3992 8.11759C54.2486 8.2982 54.0679 8.43868 53.8471 8.54905C53.6263 8.65943 53.3754 8.71963 53.0944 8.7397C52.713 8.75976 52.3818 8.69956 52.1007 8.55909C51.8197 8.41861 51.5989 8.21793 51.4383 7.95704C51.338 7.80653 51.2677 7.62592 51.2275 7.4152C51.1874 7.20449 51.1573 6.98374 51.1372 6.73289L51.0168 4.72608C50.9967 4.47523 51.0067 4.24445 51.0168 4.03373C51.0268 3.82302 51.087 3.63237 51.1673 3.47182C51.2978 3.2009 51.4885 2.97012 51.7495 2.79954C52.0104 2.61893 52.3316 2.51859 52.713 2.49852C52.994 2.47845 53.255 2.51859 53.4858 2.59886C53.7167 2.67914 53.9174 2.79954 54.0981 2.96009C54.4393 3.30125 54.63 3.74274 54.6601 4.28458L54.7605 5.9703V5.98033ZM52.2714 5.16758L53.4758 5.09734L53.4356 4.40499C53.4256 4.17421 53.3553 4.00363 53.2449 3.89325C53.1245 3.78288 52.984 3.73271 52.7933 3.74274C52.6126 3.75278 52.4621 3.82302 52.3617 3.94343C52.2613 4.06383 52.2212 4.24445 52.2312 4.47523L52.2714 5.17761V5.16758Z" fill="white"/>
<path d="M55.5634 0.0100343H56.7879L56.7578 6.86329C56.7578 7.09407 56.798 7.25461 56.8783 7.33489C56.9585 7.41516 57.1191 7.47536 57.35 7.49543V8.64935C57.0689 8.64935 56.808 8.62928 56.5872 8.57911C56.3664 8.52894 56.1656 8.44867 56.0151 8.31822C55.8545 8.19782 55.7341 8.02724 55.6538 7.80649C55.5735 7.58574 55.5333 7.29475 55.5333 6.93352L55.5634 0V0.0100343Z" fill="white"/>
<path d="M57.6209 8.56903L58.2332 0.0200195L59.4577 0.110325L59.0863 5.22769H59.1064L60.7725 2.67904L61.997 2.76935L60.361 5.13738L61.8564 8.88008L60.5216 8.77974L59.6082 6.07055L58.9558 6.95354L58.8354 8.65933L57.6109 8.56903H57.6209Z" fill="white"/>
<path d="M64.3356 9.31164L64.4359 8.68952H64.4158C64.2251 8.88017 64.0345 9.02065 63.8538 9.12099C63.6731 9.2113 63.4322 9.23136 63.1412 9.19123C63.0007 9.17116 62.8602 9.12099 62.7196 9.05075C62.5791 8.98051 62.4486 8.88017 62.3382 8.73969C62.2178 8.60925 62.1375 8.42864 62.0873 8.20789C62.0371 7.98714 62.0371 7.70619 62.0873 7.37507C62.1475 7.03391 62.2178 6.74292 62.3182 6.49207C62.4185 6.24122 62.559 6.04054 62.7297 5.89003C62.9003 5.74955 63.1111 5.64921 63.372 5.60907C63.633 5.56894 63.9542 5.57897 64.3356 5.63918C64.3757 5.63918 64.4158 5.64921 64.466 5.65924C64.5162 5.65924 64.5564 5.67931 64.5965 5.68935C64.6367 5.69938 64.6768 5.71945 64.737 5.72948C64.7972 5.72948 64.8474 5.74955 64.9177 5.76962L65.0181 5.13747C65.0482 4.92676 65.0381 4.75618 64.9679 4.60567C64.9076 4.45516 64.7571 4.36485 64.5262 4.32471C64.3657 4.29461 64.2151 4.32471 64.0646 4.40499C63.914 4.48526 63.8036 4.62574 63.7333 4.81638L62.559 4.62574C62.6795 4.09393 62.9304 3.68254 63.3218 3.41162C63.5025 3.28117 63.7133 3.18084 63.9542 3.13067C64.195 3.08049 64.446 3.07046 64.727 3.12063C64.9779 3.16077 65.2087 3.24104 65.4195 3.35141C65.6303 3.47182 65.8009 3.62233 65.9414 3.80295C66.0719 3.98356 66.1723 4.20431 66.2225 4.45516C66.2827 4.70601 66.2827 4.997 66.2225 5.30805L65.5299 9.50228L64.3155 9.3016L64.3356 9.31164ZM64.7571 6.72285C64.6266 6.67268 64.5162 6.64258 64.4259 6.63255C64.1649 6.59241 63.9341 6.61248 63.7233 6.70278C63.5125 6.79309 63.3921 7.0038 63.3319 7.32489C63.2917 7.55568 63.3218 7.74632 63.4021 7.90687C63.4824 8.06741 63.633 8.16775 63.8337 8.19786C64.0445 8.22796 64.2151 8.19786 64.3456 8.07745C64.4861 7.95704 64.5764 7.77643 64.6166 7.53561L64.7471 6.71282L64.7571 6.72285Z" fill="white"/>
<path d="M72.7463 8.97048L72.5857 9.47218C72.5054 9.72303 72.3849 9.95382 72.2244 10.1445C72.0537 10.3451 71.863 10.5057 71.6422 10.6261C71.4214 10.7465 71.1805 10.8268 70.9196 10.8669C70.6586 10.897 70.3977 10.8669 70.1367 10.7967C69.9159 10.7264 69.6951 10.6261 69.4843 10.4957C69.2736 10.3652 69.1029 10.1946 68.9624 9.98392C68.8219 9.7732 68.7316 9.53238 68.6914 9.25143C68.6513 8.97048 68.6914 8.64939 68.8018 8.26809L70.1969 3.76281C70.2772 3.49189 70.4077 3.26111 70.5683 3.06043C70.7289 2.85974 70.9196 2.6992 71.1404 2.57879C71.3612 2.45838 71.6021 2.38815 71.863 2.36808C72.124 2.34801 72.405 2.36808 72.6861 2.46842C73.2381 2.63899 73.6295 2.96009 73.8603 3.42165C73.9708 3.65243 74.041 3.90329 74.0611 4.1742C74.0812 4.44512 74.051 4.72608 73.9607 5.00703L73.8202 5.4686L72.6459 5.10737L72.7663 4.71604C72.8366 4.48526 72.8366 4.26451 72.7563 4.0538C72.676 3.84308 72.5255 3.7026 72.3046 3.6424C72.0136 3.55209 71.7928 3.5822 71.6422 3.73271C71.4917 3.88322 71.3712 4.09393 71.2909 4.37489L69.9962 8.55908C69.9259 8.7999 69.9159 9.01061 69.9661 9.20126C70.0163 9.39191 70.1769 9.53238 70.4479 9.61266C70.5281 9.63273 70.6084 9.65279 70.7088 9.65279C70.8092 9.65279 70.8995 9.63272 70.9999 9.59259C71.0902 9.55245 71.1705 9.48222 71.2508 9.39191C71.3311 9.3016 71.3913 9.17116 71.4415 9.01061L71.5619 8.60925L72.7362 8.97048H72.7463Z" fill="white"/>
<path d="M74.0912 7.75629C74.1916 7.52551 74.292 7.32483 74.4024 7.14422C74.5128 6.9636 74.6433 6.81309 74.7838 6.70272C75.0146 6.51207 75.2957 6.39166 75.5968 6.35153C75.8979 6.31139 76.2391 6.35152 76.6004 6.50204C76.9617 6.65255 77.2327 6.85323 77.4134 7.10408C77.6041 7.35493 77.7145 7.63588 77.7446 7.92687C77.7647 8.10748 77.7446 8.29813 77.6944 8.50884C77.6443 8.70953 77.574 8.93027 77.4736 9.16106L76.7008 11.0174C76.6004 11.2481 76.5001 11.4488 76.3897 11.6294C76.2793 11.81 76.1488 11.9606 76.0083 12.0709C75.7774 12.2616 75.4964 12.382 75.1953 12.4221C74.8842 12.4623 74.5529 12.4221 74.1916 12.2716C73.8303 12.1211 73.5593 11.9204 73.3786 11.6696C73.1879 11.4187 73.0775 11.1378 73.0474 10.8468C73.0274 10.6662 73.0474 10.4755 73.0976 10.2648C73.1478 10.0641 73.218 9.84337 73.3184 9.61259L74.0912 7.75629ZM74.3823 10.2648C74.292 10.4755 74.2719 10.6662 74.3321 10.8066C74.3823 10.9572 74.5027 11.0675 74.6734 11.1378C74.844 11.208 75.0046 11.208 75.1451 11.1378C75.2856 11.0675 75.4061 10.9271 75.4964 10.7163L76.4198 8.50884C76.5101 8.29813 76.5302 8.10748 76.47 7.96701C76.4198 7.8165 76.2993 7.70612 76.1287 7.63588C75.9581 7.56565 75.7975 7.56565 75.657 7.63588C75.5165 7.70612 75.396 7.8466 75.3057 8.05731L74.3823 10.2648Z" fill="white"/>
<path d="M76.6707 13.295L78.9791 8.69944L78.4371 8.42852L78.8687 7.56559L79.4107 7.83651L79.7821 7.09399C79.9125 6.83311 80.0631 6.62239 80.2337 6.48191C80.4043 6.34144 80.585 6.2411 80.7857 6.18089C80.9764 6.12069 81.1671 6.11065 81.3578 6.15079C81.5485 6.19093 81.7392 6.25113 81.9199 6.34144L82.4217 6.59229L81.8998 7.6258L81.408 7.37495C81.1972 7.26457 81.0266 7.33481 80.8962 7.58566L80.4947 8.37835L81.3177 8.78975L80.8861 9.65267L80.0631 9.24128L77.7546 13.8369L76.6606 13.285L76.6707 13.295Z" fill="white"/>
<path d="M78.8888 14.439L81.4381 9.97387L80.9162 9.67285L81.398 8.84003L81.9199 9.14105L82.3314 8.4186C82.4819 8.15771 82.6425 7.96706 82.8232 7.82659C83.0039 7.69614 83.1946 7.60584 83.3853 7.5657C83.5759 7.51553 83.7666 7.51553 83.9674 7.5657C84.1581 7.60584 84.3387 7.68611 84.5194 7.78645L85.0112 8.06741L84.4391 9.07081L83.9573 8.79989C83.7466 8.67948 83.576 8.73969 83.4354 8.99054L82.9938 9.76316L83.7867 10.2147L83.305 11.0475L82.5121 10.596L79.9627 15.0611L78.8988 14.4491L78.8888 14.439Z" fill="white"/>
<path d="M85.2722 15.3922L83.2447 14.0377L82.7831 14.73C82.6726 14.8905 82.6425 15.0411 82.6726 15.1916C82.7028 15.3421 82.7931 15.4625 82.9537 15.5628C83.1444 15.6933 83.315 15.7234 83.4555 15.6531C83.596 15.5829 83.7064 15.4926 83.7968 15.3922L84.8205 16.0746C84.5194 16.5261 84.1481 16.787 83.6864 16.8773C83.4555 16.9275 83.2247 16.9275 82.9838 16.8773C82.7429 16.8371 82.502 16.7368 82.2712 16.5763C81.95 16.3656 81.7192 16.1147 81.5887 15.8337C81.4582 15.5528 81.398 15.2618 81.4281 14.9608C81.4482 14.7802 81.4983 14.5895 81.5887 14.3989C81.679 14.2082 81.7894 14.0075 81.9299 13.7968L83.044 12.1211C83.1845 11.9104 83.325 11.7298 83.4656 11.5793C83.6061 11.4288 83.7566 11.3084 83.9272 11.2181C84.1982 11.0776 84.4893 11.0174 84.8004 11.0274C85.1116 11.0475 85.4328 11.1579 85.7539 11.3686C85.9848 11.5291 86.1755 11.7098 86.306 11.9104C86.4465 12.1212 86.5268 12.3319 86.5669 12.5626C86.6372 13.0443 86.5167 13.5058 86.2156 13.9574L85.2822 15.3621L85.2722 15.3922ZM83.7867 13.245L84.7904 13.9172L85.1818 13.3353C85.3123 13.1446 85.3625 12.964 85.3324 12.8135C85.3023 12.653 85.222 12.5225 85.0614 12.4222C84.9108 12.3218 84.7503 12.2917 84.5997 12.3218C84.4491 12.3519 84.2986 12.4723 84.1782 12.663L83.7867 13.245Z" fill="white"/>
<path d="M88.7449 18.1415L86.8479 16.6164L86.326 17.2686C86.2056 17.4191 86.1554 17.5696 86.1755 17.7201C86.1956 17.8706 86.2759 18.0011 86.4164 18.1215C86.597 18.272 86.7576 18.3121 86.9082 18.2519C87.0587 18.1917 87.1792 18.1114 87.2695 18.0211L88.223 18.7937C87.8817 19.2152 87.4903 19.446 87.0286 19.4961C86.7978 19.5262 86.5669 19.5062 86.326 19.446C86.0851 19.3757 85.8643 19.2553 85.6435 19.0847C85.3424 18.8439 85.1417 18.573 85.0313 18.282C84.9209 17.991 84.8908 17.69 84.951 17.399C84.9811 17.2184 85.0514 17.0378 85.1618 16.8572C85.2621 16.6766 85.4027 16.4859 85.5532 16.2953L86.8078 14.73C86.9684 14.5393 87.1189 14.3687 87.2795 14.2283C87.4401 14.0878 87.6007 13.9774 87.7713 13.9072C88.0524 13.7868 88.3434 13.7567 88.6546 13.7968C88.9657 13.8369 89.2668 13.9774 89.5679 14.2283C89.7887 14.4089 89.9593 14.5995 90.0697 14.8203C90.1801 15.041 90.2604 15.2618 90.2805 15.4925C90.3006 15.9742 90.15 16.4257 89.7987 16.8572L88.7449 18.1716V18.1415ZM87.4501 15.8638L88.3936 16.6164L88.8352 16.0745C88.9757 15.8939 89.046 15.7233 89.0359 15.5628C89.0259 15.4022 88.9456 15.2618 88.8051 15.1514C88.6646 15.041 88.514 14.9908 88.3535 15.0109C88.1929 15.031 88.0423 15.1313 87.9018 15.3119L87.4602 15.8538L87.4501 15.8638Z" fill="white"/>
</svg>
